<?xml version="1.0" encoding="utf-8"?>
<!-- Generator: Adobe Illustrator 26.5.0, SVG Export Plug-In . SVG Version: 6.00 Build 0)  -->
<svg version="1.1" xmlns="http://www.w3.org/2000/svg" xmlns:xlink="http://www.w3.org/1999/xlink" x="0px" y="0px"
	 viewBox="0 0 500 500" style="enable-background:new 0 0 500 500;" xml:space="preserve">
<style type="text/css">
	.st0{fill:#542576;}
	.st1{fill:#1E0832;}
	.st2{fill:#7467E1;}
	.st3{fill:#34114F;}
	.st4{fill:#FF743D;}
	.st5{fill:#4D2167;}
	.st6{fill:#604B9F;}
	.st7{fill:#FFFFFF;}
	.st8{fill:#FFAE00;}
	.st9{fill:#FFA000;}
	.st10{fill:#93A550;}
	.st11{fill:#624EA7;}
</style>
<g id="BACKGROUND">
	<rect class="st0" width="500" height="500"/>
	<rect y="405.49" class="st1" width="500" height="94.5"/>
</g>
<g id="OBJECTS">
	<g>
		<g>
			<polygon class="st1" points="487.14,287.56 477.31,285.88 488.65,280.12 488.45,278.86 484.94,279.7 490.59,266.8 498.67,264.33 
				498.01,263.02 491.06,264.7 494.72,254.32 493.31,253.8 482.7,275.14 480.6,268.95 479.51,269.47 481.13,278.23 469,284.15 
				461,295.9 451.9,298.57 448.87,290.34 447.67,290.44 449.66,300.35 442.6,310.21 440.56,294.04 444.87,285.23 460.44,282.95 
				474.2,264.62 483.06,263.29 482.83,261.75 475.89,262.15 478.93,256.47 477.05,255.47 470.2,264.81 468.79,259.09 467.69,259.46 
				468.32,266.96 458.49,277.97 444.59,279.43 446.68,272.04 462.2,263.55 463.88,254.58 453.89,239.54 466.23,231.04 
				469.63,222.97 474.17,220.66 473.65,219.22 470.18,220.69 472.51,214.53 471.02,213.9 465.81,225.85 465.1,219.92 463.85,220.19 
				463.81,229.08 454.68,233.91 455.19,224.91 460.99,218.46 460.2,217.64 454.71,222.39 453.89,213.62 452.36,213.86 
				453.11,225.01 450.21,239.69 439.23,231.91 440.72,225.33 445.79,220.98 445.53,215.26 443.96,215.58 443.91,219.88 
				440.67,221.82 439.15,211.02 437.63,211.02 438.63,223.13 435.75,230.52 431.26,226.85 431.2,217.67 434.29,213.22 
				433.35,212.27 431.1,215.11 430.94,208.55 429.22,208.55 429.48,213.8 425.87,210.28 425.3,211.33 429.37,217.2 428.49,224.86 
				419.96,215.47 419.96,206.56 418.57,206.56 418.57,214.25 411.16,211.27 410.76,212.72 417.12,217.36 426.18,228.47 
				420.59,227.53 418.45,224.33 417.51,224.91 419,227.78 415.23,227.82 415.19,228.53 427.9,230.81 434.37,237.37 427.31,236.98 
				427.35,238.24 436.91,239.85 447.15,246.89 452.6,255.15 451.54,258.37 440.44,261.79 430.72,257.03 432.41,247.83 
				430.88,244.92 431.52,241.48 430.24,241.03 429.69,243.08 427.99,240.66 427.1,241.06 429.56,245.88 427.23,245.41 
				427.07,246.46 430.16,248.13 427.99,255.84 420.72,251.96 413.59,243.57 414.06,236.81 412.78,236.65 411.99,241.06 
				407.97,235.16 406.87,235.95 412.54,246.33 407.71,246.04 407.78,247.4 413.4,248.34 417.98,254.01 431.99,263.81 436.85,271.15 
				427.75,292.65 429.64,315.29 409.25,326.41 400.47,347.59 401.51,381.77 389.28,399.28 388.23,405.49 424.46,405.49 
				422.21,397.13 429.11,384.24 423.15,354.82 428.17,338.15 442.6,329.9 454.75,305.44 466.67,299.38 474.28,288.61 487.77,290.34 
				498.67,279.72 497.18,278.49 			"/>
			<polygon class="st1" points="112.88,406.72 109.86,362.34 92.92,333.63 75.98,314.55 75.89,307.93 77.96,288.95 82.17,284.82 
				82.88,275.15 72.71,267.73 72.08,264.3 75.71,259.56 75.04,258.39 71.69,261.41 70.7,248.12 69.08,248.12 69.18,254.74 
				62.9,251.65 62.05,252.86 69.68,257.83 69.86,266.81 62.1,265.11 57.11,257.83 44.26,256.92 44.59,251.35 43.32,251.15 
				42.34,256.47 37.77,248.94 36.83,249.4 41.86,258.93 56.12,261.34 60.03,268.87 71.61,273.04 76.41,278.16 73.77,283.38 
				67.79,283.73 64.59,280.32 65.11,274.19 63.98,273.69 62.71,278.26 59.89,272.04 58.1,272.59 62.71,283.03 70.62,291.76 
				67.23,307.83 52.45,301.9 47.56,290.06 49.16,286.84 56.69,285.04 56.41,283.53 50.19,283.43 54.99,270.28 53.3,268.57 
				48.97,275.9 43.23,267.47 42.1,268.47 47.84,280.62 43.42,288.15 33.25,287.15 32.22,284.43 36.17,273.09 34.48,272.39 
				30.43,281.42 26.38,266.96 23.56,267.57 25.16,275.8 12.83,270.18 12.36,271.98 25.54,279.31 30.43,291.66 43.04,295.48 
				48.12,307.12 60.51,317.15 59.77,317.39 50.84,316.56 44.77,312.82 44.17,313.55 48.28,316.78 41.66,317.51 33.53,312.63 
				33.23,313.07 35.31,314.94 33.16,315.92 33.42,316.72 36.08,315.87 39.63,318.05 29.47,320.21 23.8,319.85 23.35,320.91 
				28.85,322.77 25.31,327.34 26.09,328.02 30.19,322.73 39.25,321.33 36.23,326.31 31.26,327.8 31.1,328.71 34.72,328.39 
				32.16,331.38 33.12,332.22 36.22,328.41 36.17,331.19 37.13,331.09 37.46,326.93 41.71,321.51 45.9,321.53 44.1,327.33 
				37.98,334.04 38.83,334.78 44.64,329.11 45.55,331.85 43.6,334.43 44.33,335.39 47.1,332.12 46.28,327.05 48.47,322.41 
				58.17,323.17 53.04,333.31 47.49,339.57 48.24,340.46 52.73,335.66 53.6,341.17 54.41,341.07 54.15,334.39 58,328.79 
				60.87,336.14 56.8,341.44 57.38,342.22 60.5,339.04 57.91,348.7 59.03,349.06 60.56,344.25 61.82,346.83 62.77,346.22 
				61.3,342.62 63.12,336.16 60.15,325.07 67.38,322.72 73.91,328.01 90.48,361.94 83.51,406.72 			"/>
			<path class="st1" d="M478.67,401.35v-8.33c0,0,0.08-4.51-1.69-9.08l-2.19,0.53l1.84-1.4c-1.98-4.48-5.86-8.73-13.48-8.51
				c-1.36,0.04-2.6,0.25-3.73,0.59l0.66,3.85l-1.82-3.44c-8.8,3.33-9.93,11.66-10.07,18.72v6.85l28.94,0.26l-31.06,0.61v3.48h36.14
				v-4.14H478.67z"/>
			<polygon class="st1" points="67.77,380.05 66.81,380.05 63.51,385.49 63.58,389.02 62.15,389.02 62.29,385.6 59.27,380.05 
				58.31,380.05 55.01,385.49 55.08,389.02 53.82,389.02 53.96,385.6 50.95,380.05 49.98,380.05 46.68,385.49 46.75,389.02 
				45.42,389.02 45.55,385.6 42.54,380.05 41.57,380.05 38.27,385.49 38.34,389.02 36.98,389.02 37.12,385.6 34.1,380.05 33,380.05 
				29.7,385.49 29.77,389.02 28.48,389.02 28.62,385.6 25.6,380.05 24.64,380.05 21.34,385.49 21.41,389.02 20.15,389.02 
				20.29,385.6 17.28,380.05 16.31,380.05 13.01,385.49 13.08,389.02 11.75,389.02 11.88,385.6 8.87,380.05 7.9,380.05 4.6,385.49 
				4.67,389.02 3.18,389.02 3.31,385.6 0.3,380.05 0,380.05 0,405.49 2.52,405.49 3.03,392.64 4.75,392.69 5.01,405.49 
				11.09,405.49 11.6,392.64 13.16,392.69 13.42,405.49 19.5,405.49 20.01,392.64 21.49,392.69 21.75,405.49 27.83,405.49 
				28.34,392.64 29.85,392.69 30.11,405.49 36.33,405.49 36.84,392.65 38.42,392.69 38.68,405.49 44.76,405.49 45.27,392.64 
				46.83,392.69 47.09,405.49 53.17,405.49 53.68,392.64 55.15,392.69 55.42,405.49 61.5,405.49 62.01,392.64 63.65,392.69 
				63.92,405.49 70,405.49 70.78,385.6 			"/>
		</g>
		<g>
			<polygon class="st2" points="84.42,198.26 97.28,402.87 402.72,402.87 415.58,198.26 			"/>
			<polygon class="st3" points="415.3,202.63 415.58,198.26 84.42,198.26 85.14,209.63 			"/>
			<polygon class="st4" points="392.25,121.16 114.21,117.56 62.62,198.26 437.38,198.26 			"/>
			<g>
				
					<rect x="395.26" y="116.31" transform="matrix(0.8882 -0.4594 0.4594 0.8882 -29.151 199.6024)" class="st5" width="0.75" height="86.8"/>
				
					<rect x="60.87" y="157.53" transform="matrix(0.4925 -0.8703 0.8703 0.4925 -83.0163 173.4574)" class="st5" width="92.69" height="0.75"/>
			</g>
			<g>
				
					<rect x="366.9" y="117.95" transform="matrix(0.9231 -0.3845 0.3845 0.9231 -33.1743 153.4751)" class="st5" width="0.75" height="83.52"/>
				
					<rect x="90.69" y="157.53" transform="matrix(0.4136 -0.9105 0.9105 0.4136 -64.5877 215.542)" class="st5" width="88.66" height="0.75"/>
			</g>
			<g>
				
					<rect x="334.86" y="119.43" transform="matrix(0.9571 -0.2897 0.2897 0.9571 -31.8928 103.9657)" class="st5" width="0.75" height="80.56"/>
				
					<rect x="123.94" y="157.53" transform="matrix(0.3134 -0.9496 0.9496 0.3134 -35.6782 266.4694)" class="st5" width="85" height="0.75"/>
			</g>
			<g>
				
					<rect x="309.96" y="120.29" transform="matrix(0.9778 -0.2095 0.2095 0.9778 -26.5742 68.5655)" class="st5" width="0.75" height="78.85"/>
				
					<rect x="149.4" y="157.53" transform="matrix(0.2278 -0.9737 0.9737 0.2278 -6.3854 307.765)" class="st5" width="82.89" height="0.75"/>
			</g>
			<polygon class="st2" points="189.53,157.91 196.26,402.87 305.78,402.87 310.47,157.91 250,98.07 			"/>
			<polygon class="st6" points="250,106.38 310.37,161.39 310.47,157.91 250,98.07 189.53,157.91 189.67,167.46 			"/>
			
				<rect x="192.91" y="198.22" transform="matrix(0.9996 -0.0291 0.0291 0.9996 -8.6764 5.7598)" class="st5" width="0.75" height="204.7"/>
			
				<rect x="205.48" y="300.19" transform="matrix(0.0196 -0.9998 0.9998 0.0196 1.2687 602.4299)" class="st5" width="204.65" height="0.75"/>
			<polygon class="st3" points="408.68,308.04 408.82,305.64 91.02,305.64 91.57,312.45 			"/>
			<polygon class="st3" points="307.66,283.11 193.25,282.19 193.07,276.81 81.03,302.88 421.13,302.88 307.76,278.04 			"/>
			<g>
				<path class="st4" d="M152.3,270.73h-26.27l-1.77-37.43c-0.36-7.67,5.76-14.08,13.43-14.08h1.16c7.42,0,13.44,6.02,13.44,13.44
					V270.73z"/>
				<path class="st7" d="M153.8,272.23h-29.2l-1.83-38.85c-0.19-4.12,1.27-8.04,4.11-11.02c2.85-2.98,6.69-4.63,10.81-4.63h1.16
					c8.24,0,14.94,6.7,14.94,14.94V272.23z M127.46,269.23h23.34v-36.56c0-6.59-5.36-11.94-11.94-11.94h-1.16
					c-3.3,0-6.37,1.31-8.64,3.7c-2.28,2.39-3.44,5.51-3.29,8.81L127.46,269.23z"/>
				<path class="st5" d="M156.67,270.3h-0.75v-37.58c0-9.32-7.58-16.9-16.9-16.9h-1.49c-4.67,0-9.01,1.86-12.23,5.24
					c-3.22,3.38-4.87,7.8-4.65,12.46l1.71,36.2l-0.75,0.04l-1.71-36.2c-0.23-4.87,1.5-9.49,4.86-13.02
					c3.36-3.53,7.9-5.47,12.77-5.47h1.49c9.73,0,17.65,7.92,17.65,17.65V270.3z"/>
				<polygon class="st3" points="158.1,274.54 120.54,276.14 120.54,272.84 158.06,272.84 				"/>
				<rect x="137.35" y="219.23" class="st7" width="3" height="50.91"/>
				<rect x="124.46" y="235.99" class="st7" width="27.84" height="3"/>
				<polygon class="st7" points="158.06,272.84 120.54,272.84 119.53,268.62 158.89,269.15 				"/>
			</g>
			<g>
				<path class="st3" d="M374.86,270.73h-26.27l-1.77-37.43c-0.36-7.67,5.76-14.08,13.43-14.08h1.16c7.42,0,13.44,6.02,13.44,13.44
					V270.73z"/>
				<path class="st7" d="M376.36,272.23h-29.2l-1.83-38.85c-0.2-4.12,1.27-8.03,4.11-11.02c2.85-2.99,6.69-4.63,10.81-4.63h1.16
					c8.24,0,14.94,6.7,14.94,14.94V272.23z M350.02,269.23h23.34v-36.56c0-6.59-5.36-11.94-11.94-11.94h-1.16
					c-3.3,0-6.37,1.31-8.64,3.7c-2.28,2.39-3.44,5.51-3.29,8.81L350.02,269.23z"/>
				<path class="st5" d="M379.23,270.3h-0.75v-37.58c0-9.32-7.58-16.9-16.9-16.9h-1.49c-4.67,0-9.01,1.86-12.23,5.24
					c-3.22,3.38-4.87,7.8-4.65,12.46l1.71,36.2l-0.75,0.04l-1.71-36.2c-0.23-4.87,1.5-9.49,4.86-13.02
					c3.36-3.53,7.9-5.47,12.77-5.47h1.49c9.73,0,17.65,7.92,17.65,17.65V270.3z"/>
				<polygon class="st3" points="380.66,274.54 343.1,276.14 343.1,272.84 380.61,272.84 				"/>
				<rect x="359.91" y="219.23" class="st7" width="3" height="50.91"/>
				<rect x="347.02" y="235.99" class="st7" width="27.84" height="3"/>
				<polygon class="st7" points="380.61,272.84 343.1,272.84 342.09,268.62 381.44,269.15 				"/>
			</g>
			<g>
				<g>
					<path class="st3" d="M161.3,361.66h-26.27l-1.77-28.42c-0.36-7.67,5.76-14.08,13.43-14.08h1.16c7.42,0,13.44,6.02,13.44,13.44
						V361.66z"/>
					<path class="st7" d="M162.8,363.16h-29.18l-1.85-29.83c-0.2-4.14,1.26-8.06,4.11-11.04c2.85-2.99,6.69-4.63,10.81-4.63h1.16
						c8.24,0,14.94,6.7,14.94,14.94V363.16z M136.44,360.16h23.36v-27.56c0-6.59-5.36-11.94-11.94-11.94h-1.16
						c-3.3,0-6.37,1.31-8.64,3.7c-2.28,2.39-3.44,5.51-3.29,8.81L136.44,360.16z"/>
					<path class="st5" d="M165.67,361.23h-0.75v-28.58c0-9.32-7.58-16.9-16.9-16.9h-1.49c-4.67,0-9.01,1.86-12.23,5.24
						c-3.22,3.38-4.87,7.8-4.65,12.46l1.71,27.19l-0.75,0.05l-1.71-27.2c-0.23-4.87,1.5-9.5,4.86-13.02
						c3.36-3.53,7.9-5.47,12.77-5.47h1.49c9.73,0,17.65,7.92,17.65,17.65V361.23z"/>
					<polygon class="st3" points="167.1,365.47 129.54,367.07 129.54,363.78 167.06,363.78 					"/>
					<rect x="146.36" y="319.16" class="st7" width="3" height="41.91"/>
					<rect x="133.46" y="335.92" class="st7" width="27.84" height="3"/>
					<polygon class="st7" points="167.06,363.78 129.54,363.78 128.53,359.55 167.89,360.08 					"/>
				</g>
				<g>
					<path class="st4" d="M363.98,361.66h-26.27l-1.77-28.42c-0.36-7.67,5.76-14.08,13.43-14.08h1.16c7.42,0,13.44,6.02,13.44,13.44
						V361.66z"/>
					<path class="st7" d="M365.48,363.16H336.3l-1.85-29.83c-0.2-4.14,1.27-8.06,4.11-11.04c2.85-2.98,6.69-4.63,10.81-4.63h1.16
						c8.24,0,14.94,6.7,14.94,14.94V363.16z M339.12,360.16h23.36v-27.56c0-6.59-5.36-11.94-11.94-11.94h-1.16
						c-3.3,0-6.37,1.31-8.64,3.7c-2.28,2.39-3.44,5.51-3.29,8.81L339.12,360.16z"/>
					<path class="st5" d="M368.35,361.23h-0.75v-28.58c0-9.32-7.58-16.9-16.9-16.9h-1.49c-4.67,0-9.01,1.86-12.23,5.24
						c-3.22,3.38-4.87,7.8-4.65,12.46l1.71,27.19l-0.75,0.05l-1.71-27.2c-0.23-4.87,1.5-9.5,4.86-13.02
						c3.36-3.53,7.9-5.47,12.77-5.47h1.49c9.73,0,17.65,7.92,17.65,17.65V361.23z"/>
					<polygon class="st3" points="369.78,365.47 332.22,367.07 332.22,363.78 369.74,363.78 					"/>
					<rect x="349.04" y="319.16" class="st7" width="3" height="41.91"/>
					<rect x="336.14" y="335.92" class="st7" width="27.84" height="3"/>
					<polygon class="st7" points="369.74,363.78 332.22,363.78 331.21,359.55 370.57,360.08 					"/>
				</g>
			</g>
			<g>
				<polygon class="st2" points="122.97,175.44 120.49,145.05 139.48,130.26 158.06,145.22 156.99,175.97 				"/>
				<polygon class="st3" points="139.52,130.96 160.04,147.49 161.98,144.68 139.52,126.6 116.43,144.59 118.61,147.25 				"/>
				<g>
					<path class="st3" d="M153.38,177.55h-26.27l-1.77-22.54c-0.36-7.67,5.76-14.08,13.43-14.08h1.16c7.42,0,13.44,6.02,13.44,13.44
						V177.55z"/>
					<path class="st7" d="M154.88,179.05h-29.16l-1.87-23.92c-0.2-4.17,1.26-8.08,4.11-11.07c2.85-2.98,6.69-4.63,10.81-4.63h1.16
						c8.24,0,14.94,6.7,14.94,14.94V179.05z M128.5,176.05h23.38v-21.67c0-6.59-5.36-11.94-11.94-11.94h-1.16
						c-3.3,0-6.37,1.31-8.64,3.7c-2.28,2.39-3.44,5.51-3.29,8.81L128.5,176.05z"/>
					<rect x="138.44" y="140.93" class="st7" width="3" height="36.02"/>
					<rect x="125.55" y="157.69" class="st7" width="27.84" height="3"/>
					<polygon class="st7" points="158.22,179.66 120.93,179.66 120.49,175.44 159.03,175.97 					"/>
				</g>
				<polygon class="st3" points="158.22,179.66 158.06,181.49 120.97,183.21 120.93,179.66 				"/>
			</g>
			<g>
				<polygon class="st2" points="345.53,178.44 343.05,148.06 362.04,133.26 380.62,148.22 379.55,178.97 				"/>
				<polygon class="st3" points="362.08,133.97 382.6,150.49 384.54,147.68 362.08,129.61 338.99,147.59 341.17,150.26 				"/>
				<g>
					<path class="st3" d="M375.94,180.55h-26.27l-1.77-22.54c-0.36-7.67,5.76-14.08,13.43-14.08h1.16c7.42,0,13.44,6.02,13.44,13.44
						V180.55z"/>
					<path class="st7" d="M377.44,182.05h-29.16l-1.87-23.92c-0.2-4.17,1.26-8.08,4.11-11.07c2.85-2.98,6.69-4.63,10.81-4.63h1.16
						c8.24,0,14.94,6.7,14.94,14.94V182.05z M351.06,179.05h23.38v-21.67c0-6.59-5.36-11.94-11.94-11.94h-1.16
						c-3.3,0-6.37,1.31-8.64,3.7c-2.28,2.39-3.44,5.51-3.29,8.81L351.06,179.05z"/>
					<rect x="361" y="143.93" class="st7" width="3" height="36.02"/>
					<rect x="348.11" y="160.69" class="st7" width="27.84" height="3"/>
					<polygon class="st7" points="380.78,182.66 343.49,182.66 343.05,178.44 381.59,178.97 					"/>
				</g>
				<polygon class="st3" points="380.78,182.66 380.62,184.5 343.53,186.21 343.49,182.66 				"/>
			</g>
			<g>
				<g>
					<path class="st4" d="M267.46,162.49c-0.03-9.62-7.83-17.41-17.46-17.41s-17.43,7.79-17.46,17.41H267.46z"/>
					<path class="st7" d="M268.96,163.99h-37.92l0-1.5c0.03-10.43,8.53-18.91,18.96-18.91s18.93,8.48,18.96,18.91L268.96,163.99z
						 M234.12,160.99h31.77c-0.78-8.07-7.61-14.41-15.88-14.41S234.9,152.91,234.12,160.99z"/>
					<path class="st7" d="M250.01,163.91c-0.44,0-0.86-0.19-1.14-0.53l-11.39-13.35l2.28-1.95l10.25,12.01l10.24-12l2.28,1.95
						l-11.38,13.33C250.86,163.72,250.45,163.91,250.01,163.91z"/>
				</g>
				<path class="st5" d="M271.4,166.42h-42.8l0.01-3.94c0.03-11.76,9.62-21.33,21.39-21.33c11.76,0,21.36,9.57,21.39,21.33
					L271.4,166.42z M229.35,165.67h41.29l-0.01-3.19c-0.03-11.35-9.29-20.58-20.64-20.58s-20.61,9.23-20.64,20.58L229.35,165.67z"/>
			</g>
			<g>
				<polygon class="st3" points="285.05,272.85 285.05,275.28 217.02,276.63 217,272.85 				"/>
				<path class="st3" d="M278.52,270.96h-56.37l-1.22-36.23c-0.55-16.44,12.62-30.07,29.08-30.07h0.52
					c16.41,0,29.57,13.56,29.08,29.96L278.52,270.96z"/>
				<path class="st7" d="M279.97,272.46H220.7l-1.27-37.68c-0.28-8.36,2.77-16.28,8.58-22.29c5.82-6.02,13.63-9.33,21.99-9.33h0.52
					c8.34,0,16.14,3.3,21.95,9.28c5.81,5.99,8.88,13.88,8.63,22.22L279.97,272.46z M223.6,269.46h53.46l1.04-34.89
					c0.22-7.52-2.54-14.64-7.78-20.04c-5.24-5.4-12.27-8.37-19.8-8.37h-0.52c-7.55,0-14.59,2.99-19.84,8.41
					c-5.25,5.42-7.99,12.57-7.74,20.11L223.6,269.46z"/>
				<path class="st5" d="M218.32,270.97l-1.23-36.6c-0.3-9,2.98-17.51,9.23-23.99c6.26-6.47,14.66-10.03,23.66-10.03h0.58
					c8.98,0,17.36,3.55,23.62,9.99c6.25,6.44,9.55,14.93,9.28,23.9l-1.09,36.73l-0.75-0.02l1.09-36.73
					c0.26-8.77-2.96-17.06-9.07-23.36c-6.11-6.29-14.31-9.76-23.08-9.76h-0.58c-8.8,0-17.01,3.48-23.12,9.81
					c-6.11,6.32-9.32,14.65-9.02,23.44l1.23,36.6L218.32,270.97z"/>
				
					<rect x="248.74" y="200.06" transform="matrix(6.604761e-03 -1 1 6.604761e-03 19.2209 478.0834)" class="st7" width="3" height="58.62"/>
				
					<rect x="237.74" y="207.56" transform="matrix(0.9995 -0.0329 0.0329 0.9995 -7.7333 7.9909)" class="st7" width="3" height="63.42"/>
				
					<rect x="228.81" y="237.37" transform="matrix(0.0186 -0.9998 0.9998 0.0186 17.2234 495.292)" class="st7" width="64.18" height="3"/>
				<polygon class="st7" points="285.9,269.35 216.15,269.35 217,272.96 285.05,272.96 				"/>
			</g>
			<g>
				<path class="st7" d="M116.02,351.6l-8.64-45.58c-0.01-0.06,0.01-0.13,0.05-0.18c0.04-0.05,0.11-0.07,0.17-0.06l49.11,8.13
					l-0.06,0.39l-48.82-8.08l8.59,45.29L116.02,351.6z"/>
				<path class="st7" d="M130.72,346.88l-23.32-40.79c-0.05-0.08-0.03-0.18,0.04-0.24c0.07-0.06,0.17-0.07,0.25-0.02l38.01,24.25
					l-0.21,0.34l-37.32-23.81l22.92,40.08L130.72,346.88z"/>
				<polygon class="st7" points="106.55,350.17 106.5,349.78 115.7,348.75 115.74,349.15 				"/>
				<polygon class="st7" points="106.56,345.7 106.49,345.31 114.78,343.97 114.85,344.37 				"/>
				
					<rect x="106.51" y="342.06" transform="matrix(0.9969 -0.0783 0.0783 0.9969 -26.4671 9.7028)" class="st7" width="7.89" height="0.4"/>
				
					<rect x="106.42" y="336.56" transform="matrix(0.971 -0.2391 0.2391 0.971 -77.3211 36.0352)" class="st7" width="6.93" height="0.4"/>
				
					<rect x="106.51" y="334.03" transform="matrix(0.9947 -0.1026 0.1026 0.9947 -33.713 13.0186)" class="st7" width="6.38" height="0.4"/>
				<polygon class="st7" points="106.55,333.04 106.49,332.65 112.46,331.71 112.52,332.11 				"/>
				
					<rect x="106.52" y="327.77" transform="matrix(0.9973 -0.0733 0.0733 0.9973 -23.7616 8.8865)" class="st7" width="5.2" height="0.4"/>
				<polygon class="st7" points="106.54,326.43 106.5,326.04 111.31,325.58 111.35,325.98 				"/>
				
					<rect x="106.51" y="321.7" transform="matrix(0.9913 -0.1318 0.1318 0.9913 -41.4652 17.1057)" class="st7" width="4.05" height="0.4"/>
				<polygon class="st7" points="106.53,319.75 106.52,319.35 110.12,319.22 110.13,319.62 				"/>
				<polygon class="st7" points="106.55,318.01 106.5,317.61 109.71,317.18 113.32,315.95 113.45,316.33 109.8,317.57 				"/>
				<polygon class="st7" points="106.53,314.43 106.51,314.04 109.11,313.92 109.12,314.32 				"/>
				<polygon class="st7" points="106.57,312.35 106.48,311.96 108.49,311.52 108.57,311.91 				"/>
				
					<rect x="114.99" y="345.01" transform="matrix(0.9265 -0.3762 0.3762 0.9265 -120.8967 71.2495)" class="st7" width="14.01" height="0.4"/>
				
					<rect x="114.62" y="342.78" transform="matrix(0.9417 -0.3365 0.3365 0.9417 -108.3321 60.7874)" class="st7" width="13.22" height="0.4"/>
				<polygon class="st7" points="114.1,340.24 113.97,339.86 124.91,336.23 125.04,336.61 				"/>
				
					<rect x="113.13" y="335.39" transform="matrix(0.9119 -0.4105 0.4105 0.9119 -127.3222 78.194)" class="st7" width="10.59" height="0.4"/>
				<polygon class="st7" points="113.19,335.51 113.08,335.13 122.61,332.19 122.72,332.57 				"/>
				<polygon class="st7" points="111.64,327.3 111.51,326.92 118.25,324.58 118.38,324.95 				"/>
				
					<rect x="111.03" y="323.74" transform="matrix(0.9672 -0.2541 0.2541 0.9672 -78.5677 39.6667)" class="st7" width="6.45" height="0.4"/>
				<polygon class="st7" points="110.37,320.67 110.27,320.29 115.07,318.99 115.17,319.37 				"/>
				
					<rect x="109.38" y="315.27" transform="matrix(0.9416 -0.3367 0.3367 0.9416 -99.7277 55.8146)" class="st7" width="3.39" height="0.4"/>
				<polygon class="st7" points="109,313.41 108.89,313.03 111.25,312.32 111.36,312.7 				"/>
				
					<rect x="109.78" y="309.39" transform="matrix(0.7157 -0.6984 0.6984 0.7157 -184.6716 165.5432)" class="st7" width="2.43" height="0.4"/>
				<polygon class="st7" points="112.19,314 111.94,313.69 115.35,310.91 115.6,311.22 				"/>
				<path class="st7" d="M113.12,315.62l-0.24-0.32l4.22-3.23l2.19-4.09l0.35,0.19l-2.21,4.12c-0.01,0.02-0.03,0.05-0.05,0.06
					L113.12,315.62z"/>
				<polygon class="st7" points="114.83,318.65 114.61,318.32 120.57,314.24 120.79,314.57 				"/>
				
					<rect x="115.07" y="317.94" transform="matrix(0.7611 -0.6487 0.6487 0.7611 -177.89 153.3268)" class="st7" width="8.24" height="0.4"/>
				<polygon class="st7" points="116.99,322.36 116.72,322.07 123.24,316 123.51,316.29 				"/>
				<path class="st7" d="M118.86,325.65l-0.12-0.16l-0.17,0.11c-0.11-0.16-0.11-0.16,1.43-1.31l7.46-5.57l4.5-8.68l0.36,0.18
					l-4.52,8.72c-0.01,0.03-0.03,0.05-0.06,0.07C124.72,321.26,119,325.54,118.86,325.65z"/>
				<path class="st7" d="M112.26,330.62l-0.1-0.39l8.11-2.07l9.73-7.84l0.25,0.31l-9.76,7.87c-0.02,0.02-0.05,0.03-0.08,0.04
					L112.26,330.62z"/>
				
					<rect x="119.74" y="325.35" transform="matrix(0.8104 -0.5859 0.5859 0.8104 -166.7649 135.8205)" class="st7" width="13.43" height="0.4"/>
				
					<rect x="121.83" y="329.11" transform="matrix(0.7241 -0.6897 0.6897 0.7241 -191.3751 180.2695)" class="st7" width="15.56" height="0.4"/>
				
					<rect x="124.49" y="333.34" transform="matrix(0.7393 -0.6734 0.6734 0.7393 -189.7117 177.0449)" class="st7" width="18.63" height="0.4"/>
				<polygon class="st7" points="129.69,344.29 129.38,344.04 142.15,328.18 142.46,328.43 				"/>
				
					<rect x="111.84" y="307.88" transform="matrix(0.4057 -0.914 0.914 0.4057 -214.4059 286.4219)" class="st7" width="2.42" height="0.4"/>
				<polygon class="st7" points="114.08,310.16 113.74,309.96 115.3,307.2 115.65,307.4 				"/>
				<polygon class="st7" points="116.59,311.63 116.23,311.46 118.04,307.56 118.4,307.73 				"/>
				
					<rect x="118.46" y="311.16" transform="matrix(0.4472 -0.8944 0.8944 0.4472 -211.3497 280.7539)" class="st7" width="6" height="0.4"/>
				
					<rect x="120.07" y="312.08" transform="matrix(0.2391 -0.971 0.971 0.2391 -209.1298 357.6898)" class="st7" width="7.19" height="0.4"/>
				
					<rect x="121.18" y="312.83" transform="matrix(0.1295 -0.9916 0.9916 0.1295 -201.4835 396.5467)" class="st7" width="7.87" height="0.4"/>
				<polygon class="st7" points="126.42,318.07 126.06,317.9 130.02,309.65 130.38,309.82 				"/>
				
					<rect x="128.41" y="315.87" transform="matrix(0.5365 -0.8439 0.8439 0.5365 -204.4184 259.976)" class="st7" width="12.09" height="0.4"/>
				<polygon class="st7" points="134.27,323.11 133.91,322.95 139.01,311.28 139.38,311.44 				"/>
				
					<rect x="133.92" y="318.76" transform="matrix(0.3938 -0.9192 0.9192 0.3938 -207.4638 323.3407)" class="st7" width="14.97" height="0.4"/>
				
					<rect x="135.52" y="319.42" transform="matrix(0.4666 -0.8845 0.8845 0.4666 -206.1447 297.404)" class="st7" width="15.98" height="0.4"/>
				
					<rect x="138.77" y="320.91" transform="matrix(0.4569 -0.8895 0.8895 0.4569 -205.4813 305.6697)" class="st7" width="17.61" height="0.4"/>
				
					<rect x="114.01" y="306.36" transform="matrix(0.1811 -0.9835 0.9835 0.1811 -207.6567 363.7314)" class="st7" width="1.16" height="0.4"/>
				
					<rect x="116.14" y="306.56" transform="matrix(0.0758 -0.9971 0.9971 0.0758 -197.8275 400.0731)" class="st7" width="1.54" height="0.4"/>
				
					<rect x="120.49" y="306.94" transform="matrix(0.1635 -0.9865 0.9865 0.1635 -201.2483 376.9183)" class="st7" width="2.33" height="0.4"/>
				
					<rect x="124.86" y="307.33" transform="matrix(0.1073 -0.9942 0.9942 0.1073 -192.9106 400.2217)" class="st7" width="3.11" height="0.4"/>
				
					<rect x="129.61" y="307.74" transform="matrix(0.2 -0.9798 0.9798 0.2 -196.436 375.3167)" class="st7" width="3.99" height="0.4"/>
				
					<rect x="131.39" y="307.93" transform="matrix(0.0538 -0.9986 0.9986 0.0538 -181.3251 424.9071)" class="st7" width="4.28" height="0.4"/>
				
					<rect x="137.9" y="308.48" transform="matrix(0.1564 -0.9877 0.9877 0.1564 -186.2572 399.2713)" class="st7" width="5.44" height="0.4"/>
				
					<rect x="139.46" y="308.63" transform="matrix(0.1635 -0.9865 0.9865 0.1635 -185.6131 398.7364)" class="st7" width="5.75" height="0.4"/>
				
					<rect x="142.38" y="308.87" transform="matrix(0.0952 -0.9955 0.9955 0.0952 -176.0389 424.4694)" class="st7" width="6.19" height="0.4"/>
				
					<rect x="146.83" y="309.31" transform="matrix(0.0855 -0.9963 0.9963 0.0855 -170.8653 432.8542)" class="st7" width="7.06" height="0.4"/>
				
					<rect x="150.95" y="309.65" transform="matrix(0.1589 -0.9873 0.9873 0.1589 -175.6623 413.5034)" class="st7" width="7.82" height="0.4"/>
			</g>
			<polygon class="st4" points="405.16,405.54 94.41,405.54 93.71,390.41 407.55,387 			"/>
			<rect x="81.03" y="302.88" class="st4" width="340.1" height="3.41"/>
			<rect x="81.03" y="302.51" class="st5" width="340.1" height="0.75"/>
			<rect x="94.28" y="403.41" class="st5" width="311.22" height="0.75"/>
			<g>
				<polygon class="st4" points="107.77,385.91 107.77,390.31 100.8,390.31 99.81,390.31 98.04,390.31 98.04,385.91 99.09,385.91 
					99.09,310.44 98.52,310.44 98.52,305.99 100.8,305.99 107.29,305.99 107.29,310.44 106.72,310.44 106.72,385.91 				"/>
				<rect x="99.09" y="385.53" class="st5" width="7.62" height="0.75"/>
				<rect x="99.09" y="310.07" class="st5" width="7.62" height="0.75"/>
			</g>
			<g>
				<polygon class="st4" points="209.53,385.11 209.53,389.46 202.56,389.46 201.58,389.46 199.81,389.46 199.81,385.11 
					200.86,385.11 200.86,310.4 200.29,310.4 200.29,305.99 202.56,305.99 209.05,305.99 209.05,310.4 208.48,310.4 208.48,385.11 
									"/>
				<rect x="200.86" y="384.73" class="st5" width="7.62" height="0.75"/>
				<rect x="200.86" y="310.02" class="st5" width="7.62" height="0.75"/>
			</g>
			<g>
				<polygon class="st4" points="302.53,384.21 302.53,388.52 295.56,388.52 294.57,388.52 292.81,388.52 292.81,384.21 
					293.86,384.21 293.86,310.35 293.29,310.35 293.29,305.99 295.56,305.99 302.05,305.99 302.05,310.35 301.48,310.35 
					301.48,384.21 				"/>
				<rect x="293.86" y="383.84" class="st5" width="7.62" height="0.75"/>
				<rect x="293.86" y="309.97" class="st5" width="7.62" height="0.75"/>
			</g>
			<g>
				<polygon class="st4" points="398.45,383.21 398.45,387.47 391.48,387.47 390.5,387.47 388.73,387.47 388.73,383.21 
					389.78,383.21 389.78,310.29 389.21,310.29 389.21,305.99 391.48,305.99 397.97,305.99 397.97,310.29 397.4,310.29 
					397.4,383.21 				"/>
				<rect x="389.78" y="382.84" class="st5" width="7.62" height="0.75"/>
				<rect x="389.78" y="309.92" class="st5" width="7.62" height="0.75"/>
			</g>
			<polygon class="st3" points="221.86,389.02 216.8,389.09 208.99,405.54 217.81,405.54 			"/>
			<polygon class="st3" points="284.2,388.33 288.64,388.29 296.93,405.54 288.11,405.54 			"/>
			<g>
				<polygon class="st4" points="106.07,372.13 202.19,370.88 202.19,373.73 106.24,374.22 				"/>
				<g>
					<polygon class="st4" points="113.04,390.18 111.53,390.18 111.08,373.27 113.04,373.27 					"/>
					<polygon class="st4" points="119.44,390.18 117.93,390.18 117.48,373.27 119.44,373.27 					"/>
					<polygon class="st4" points="125.84,390.18 124.33,390.18 123.88,373.27 125.84,373.27 					"/>
					<polygon class="st4" points="132.24,390.18 130.73,390.18 130.28,373.27 132.24,373.27 					"/>
					<polygon class="st4" points="138.65,390.18 137.14,390.18 136.68,373.27 138.65,373.27 					"/>
					<polygon class="st4" points="145.05,390.18 143.54,390.18 143.09,373.27 145.05,373.27 					"/>
					<polygon class="st4" points="151.45,390.18 149.94,390.18 149.49,373.27 151.45,373.27 					"/>
					<polygon class="st4" points="157.85,390.18 156.34,390.18 155.89,373.27 157.85,373.27 					"/>
					<polygon class="st4" points="164.25,390.18 162.75,390.18 162.29,373.27 164.25,373.27 					"/>
					<polygon class="st4" points="170.66,390.18 169.15,390.18 168.7,373.27 170.66,373.27 					"/>
					<polygon class="st4" points="177.06,390.18 175.55,390.18 175.1,373.27 177.06,373.27 					"/>
					<polygon class="st4" points="183.46,390.18 181.95,390.18 181.5,373.27 183.46,373.27 					"/>
					<polygon class="st4" points="189.86,390.18 188.35,390.18 187.9,373.27 189.86,373.27 					"/>
					<polygon class="st4" points="196.26,390.18 194.76,390.18 194.3,373.27 196.26,373.27 					"/>
				</g>
				
					<rect x="106.24" y="373.6" transform="matrix(1 -5.199930e-03 5.199930e-03 1 -1.9426 0.8035)" class="st5" width="94.62" height="0.75"/>
				<polygon class="st5" points="107.77,390.68 107.76,389.93 199.8,389.09 199.81,389.84 				"/>
			</g>
			<g>
				<polygon class="st4" points="396.27,370.82 300.14,369.57 300.14,372.43 396.09,372.92 				"/>
				<g>
					<polygon class="st4" points="382.9,388.87 384.41,388.87 384.86,371.97 382.9,371.97 					"/>
					<polygon class="st4" points="376.5,388.87 378,388.87 378.46,371.97 376.5,371.97 					"/>
					<polygon class="st4" points="370.09,388.87 371.6,388.87 372.05,371.97 370.09,371.97 					"/>
					<polygon class="st4" points="363.69,388.87 365.2,388.87 365.65,371.97 363.69,371.97 					"/>
					<polygon class="st4" points="357.29,388.87 358.8,388.87 359.25,371.97 357.29,371.97 					"/>
					<polygon class="st4" points="350.89,388.87 352.39,388.87 352.85,371.97 350.89,371.97 					"/>
					<polygon class="st4" points="344.48,388.87 345.99,388.87 346.45,371.97 344.48,371.97 					"/>
					<polygon class="st4" points="338.08,388.87 339.59,388.87 340.04,371.97 338.08,371.97 					"/>
					<polygon class="st4" points="331.68,388.87 333.19,388.87 333.64,371.97 331.68,371.97 					"/>
					<polygon class="st4" points="325.28,388.87 326.79,388.87 327.24,371.97 325.28,371.97 					"/>
					<polygon class="st4" points="318.88,388.87 320.38,388.87 320.84,371.97 318.88,371.97 					"/>
					<polygon class="st4" points="312.47,388.87 313.98,388.87 314.43,371.97 312.47,371.97 					"/>
					<polygon class="st4" points="306.07,388.87 307.58,388.87 308.03,371.97 306.07,371.97 					"/>
				</g>
				
					<rect x="345.25" y="328.51" transform="matrix(5.093486e-03 -1 1 5.093486e-03 -28.7912 716.376)" class="st5" width="0.75" height="88.29"/>
				
					<rect x="302.53" y="387.44" transform="matrix(1 -7.733102e-03 7.733102e-03 1 -2.9887 2.6844)" class="st5" width="86.2" height="0.75"/>
			</g>
			<g>
				<path class="st3" d="M271.19,387.06l-39.54,0.37l-0.76-51.75c-0.16-10.66,8.44-19.38,19.1-19.38h1.62
					c11.19,0,20.23,9.13,20.11,20.32L271.19,387.06z"/>
				<path class="st7" d="M230.18,388.94l-0.78-52.75c-0.08-5.69,2.07-11.06,6.06-15.11c3.99-4.05,9.33-6.29,15.02-6.29
					c6.12,0,11.86,2.39,16.16,6.74c4.3,4.35,6.64,10.11,6.57,16.23l-0.54,50.78L230.18,388.94z M250.49,317.8
					c-4.88,0-9.46,1.91-12.88,5.39c-3.43,3.48-5.27,8.08-5.2,12.96l0.73,49.77l36.58-0.34l0.51-47.83
					c0.06-5.31-1.97-10.31-5.71-14.09C260.78,319.88,255.8,317.8,250.49,317.8z"/>
				<rect x="236.24" y="350.21" class="st7" width="2" height="5.11"/>
			</g>
			<path class="st5" d="M227.41,391.43l-0.82-55.86c-0.09-6.25,2.27-12.14,6.66-16.59c4.39-4.45,10.24-6.9,16.49-6.9h1.94
				c6.55,0,12.7,2.57,17.31,7.22c4.61,4.66,7.11,10.83,7.04,17.39l-0.57,53.54l-0.75-0.01l0.57-53.54
				c0.07-6.35-2.36-12.34-6.83-16.85c-4.47-4.52-10.43-7-16.78-7h-1.94c-6.05,0-11.71,2.37-15.96,6.68
				c-4.24,4.31-6.53,10.01-6.44,16.06l0.82,55.86L227.41,391.43z"/>
			<g>
				<polygon class="st4" points="289.59,401.93 289.59,395.11 287.31,395.14 287.34,388.29 218.68,389.05 218.68,396.06 
					216.4,396.09 216.4,402.83 213.25,402.87 213.25,410.04 292.74,410.04 292.74,401.89 				"/>
				
					<rect x="218.67" y="395.23" transform="matrix(0.9999 -0.0129 0.0129 0.9999 -5.0949 3.3049)" class="st5" width="68.64" height="0.75"/>
				
					<rect x="216.4" y="402.01" transform="matrix(0.9999 -0.0131 0.0131 0.9999 -5.2357 3.3399)" class="st5" width="73.19" height="0.75"/>
			</g>
			<g>
				<path class="st7" d="M274.8,131.29l-25.05-32.86l-19.96,31.34l-0.34-0.21l20.11-31.58c0.04-0.06,0.09-0.09,0.16-0.09
					c0.08,0,0.13,0.03,0.17,0.08l25.22,33.09L274.8,131.29z"/>
				<path class="st7" d="M241.38,135.39l-0.39-0.09l8.55-37.26c0.02-0.09,0.1-0.15,0.19-0.16c0.1,0.01,0.17,0.06,0.2,0.15
					l9.54,36.09l-0.39,0.1l-9.33-35.3L241.38,135.39z"/>
				<polygon class="st7" points="230.66,128.01 224.52,123.3 224.76,122.99 230.91,127.69 				"/>
				<polygon class="st7" points="232.78,124.7 227.01,120.7 227.24,120.37 233.01,124.38 				"/>
				
					<rect x="233.83" y="114.48" transform="matrix(0.5039 -0.8638 0.8638 0.5039 14.7234 260.3805)" class="st7" width="0.4" height="5.79"/>
				
					<rect x="235.12" y="113.12" transform="matrix(0.6154 -0.7882 0.7882 0.6154 -0.7575 230.0192)" class="st7" width="0.4" height="5.33"/>
				<polygon class="st7" points="240,113.34 236.64,110.57 236.9,110.26 240.25,113.03 				"/>
				<polygon class="st7" points="240.88,111.96 237.72,109.45 237.97,109.13 241.13,111.64 				"/>
				
					<rect x="241.27" y="106.22" transform="matrix(0.5922 -0.8058 0.8058 0.5922 11.5185 238.5957)" class="st7" width="0.4" height="3.39"/>
				
					<rect x="242.49" y="104.89" transform="matrix(0.6646 -0.7472 0.7472 0.6646 1.9051 217.0284)" class="st7" width="0.4" height="3.01"/>
				<polygon class="st7" points="247.52,107.54 244.63,106.16 242.41,104.54 242.65,104.21 244.83,105.82 247.69,107.18 				"/>
				
					<rect x="245.13" y="101.92" transform="matrix(0.6573 -0.7536 0.7536 0.6573 6.448 220.1835)" class="st7" width="0.4" height="2.17"/>
				
					<rect x="246.2" y="100.67" transform="matrix(0.5271 -0.8498 0.8498 0.5271 30.2548 257.4164)" class="st7" width="0.4" height="1.72"/>
				<polygon class="st7" points="241.99,131.68 231.19,127.27 231.34,126.9 242.14,131.31 				"/>
				
					<rect x="237.24" y="122.05" transform="matrix(0.4166 -0.9091 0.9091 0.4166 22.5731 290.2791)" class="st7" width="0.4" height="11.01"/>
				<polygon class="st7" points="243.27,126.07 234.62,121.87 234.79,121.51 243.44,125.71 				"/>
				<polygon class="st7" points="243.92,123.33 235.65,120.29 235.79,119.92 244.06,122.95 				"/>
				<polygon class="st7" points="245.72,115.42 240.33,112.9 240.5,112.54 245.89,115.06 				"/>
				<polygon class="st7" points="246.87,110.31 243.25,108.3 243.44,107.95 247.07,109.96 				"/>
				<polygon class="st7" points="247.79,106.4 245.22,105.23 245.39,104.86 247.95,106.04 				"/>
				<polygon class="st7" points="248.28,104.22 246.46,103.27 246.64,102.92 248.46,103.87 				"/>
				<polygon class="st7" points="250.8,102.37 248.8,102.35 248.8,101.95 250.8,101.97 				"/>
				<polygon class="st7" points="251.68,105.8 248.07,105.46 248.11,105.06 251.72,105.41 				"/>
				<path class="st7" d="M252.14,107.5c-0.01,0-0.02,0-0.03,0l-4.39-0.56l0.05-0.4l4.35,0.55l3.59-1.12l0.12,0.38l-3.63,1.13
					C252.18,107.49,252.16,107.5,252.14,107.5z"/>
				<polygon class="st7" points="252.96,110.76 247.08,109.7 247.15,109.3 253.03,110.36 				"/>
				<polygon class="st7" points="253.66,113.33 246.33,113.1 246.34,112.7 253.67,112.93 				"/>
				<path class="st7" d="M254.71,117.36c-0.01,0-0.02,0-0.03,0c-3.07-0.43-8.9-1.23-9.06-1.25l0.02-0.2l-0.2-0.03
					c0.03-0.2,0.02-0.2,1.64,0.02l7.6,1.05l7.54-2.47l0.12,0.38l-7.59,2.48C254.76,117.35,254.74,117.36,254.71,117.36z"/>
				<path class="st7" d="M255.32,119.75l-10.29-1.04c-0.03,0-0.05-0.01-0.08-0.03l-6.09-3.49l0.2-0.35l6.06,3.47l10.25,1.04
					L255.32,119.75z"/>
				<polygon class="st7" points="256.51,124.73 243.72,124.49 243.73,124.09 256.51,124.33 				"/>
				<polygon class="st7" points="257.95,129.81 242.64,129.19 242.65,128.79 257.97,129.41 				"/>
				<polygon class="st7" points="241.83,133.24 241.79,132.84 258.34,130.95 258.39,131.35 				"/>
				<polygon class="st7" points="251.05,103.01 250.9,102.64 252.73,101.92 252.88,102.29 				"/>
				<polygon class="st7" points="251.37,104.31 251.26,103.92 253.74,103.21 253.85,103.6 				"/>
				
					<rect x="251.89" y="105.61" transform="matrix(0.936 -0.3521 0.3521 0.936 -21.0131 96.0829)" class="st7" width="3.49" height="0.4"/>
				<polygon class="st7" points="252.92,110.21 252.79,109.83 257.4,108.25 257.53,108.63 				"/>
				
					<rect x="253.27" y="112.12" transform="matrix(0.7809 -0.6247 0.6247 0.7809 -13.9699 184.8147)" class="st7" width="6.35" height="0.4"/>
				
					<rect x="255.48" y="119.28" transform="matrix(0.9745 -0.2246 0.2246 0.9745 -20.1826 61.5418)" class="st7" width="9.85" height="0.4"/>
				<polygon class="st7" points="257.49,127.68 257.33,127.31 268.55,122.67 268.7,123.04 				"/>
				
					<rect x="257.43" y="126.58" transform="matrix(0.953 -0.303 0.303 0.953 -26.0061 85.9248)" class="st7" width="12.99" height="0.4"/>
				
					<rect x="258.41" y="129.8" transform="matrix(0.9499 -0.3126 0.3126 0.9499 -27.3292 89.5367)" class="st7" width="14.31" height="0.4"/>
				
					<rect x="253.2" y="102.26" transform="matrix(0.8136 -0.5814 0.5814 0.8136 -12.2912 166.5889)" class="st7" width="0.94" height="0.4"/>
				<polygon class="st7" points="254.64,104.48 254.37,104.18 255.29,103.36 255.56,103.65 				"/>
				<polygon class="st7" points="256.99,107.6 256.75,107.28 258.26,106.16 258.5,106.48 				"/>
				<polygon class="st7" points="259.46,110.81 259.2,110.51 261.12,108.9 261.38,109.2 				"/>
				
					<rect x="261.59" y="112.89" transform="matrix(0.8245 -0.5659 0.5659 0.8245 -17.8012 168.7967)" class="st7" width="3.22" height="0.4"/>
				
					<rect x="262.55" y="114.12" transform="matrix(0.73 -0.6835 0.6835 0.73 -6.771 211.4921)" class="st7" width="3.45" height="0.4"/>
				<polygon class="st7" points="266.63,120.21 266.39,119.89 269.89,117.24 270.13,117.56 				"/>
				
					<rect x="266.89" y="119.6" transform="matrix(0.8032 -0.5957 0.5957 0.8032 -18.3858 183.951)" class="st7" width="4.64" height="0.4"/>
				<polygon class="st7" points="269.22,123.54 268.96,123.24 272.74,119.98 273,120.28 				"/>
				<polygon class="st7" points="271.7,126.86 271.43,126.56 275.7,122.8 275.97,123.1 				"/>
				
					<rect x="273.08" y="127.43" transform="matrix(0.7999 -0.6001 0.6001 0.7999 -21.3221 191.31)" class="st7" width="6.31" height="0.4"/>
			</g>
			<polygon class="st3" points="185.62,163.06 175.16,154.1 249.68,82.57 329.59,153.84 317.22,164.58 250,98.07 			"/>
			<rect x="81.03" y="306.01" class="st5" width="340.1" height="0.75"/>
		</g>
		<g>
			<path class="st3" d="M470.1,97.51c-1.44-3.51-4.89-5.98-8.92-5.98c-0.26,0-0.53,0.01-0.79,0.03c-2.52,0.21-4.84-1.33-5.43-3.78
				c-0.01-0.06-0.03-0.12-0.04-0.17c-2.13-7.77-9.24-13.48-17.69-13.48c-7.47,0-13.89,4.47-16.74,10.88
				c-0.93,2.09-3.3,3.11-5.46,2.34c-1.26-0.45-2.62-0.7-4.03-0.7c-1.23,0-2.41,0.18-3.53,0.53c-2.58,0.79-5.37,0.08-7.11-2
				c-2.86-3.42-7.15-5.59-11.95-5.59c-0.32,0-0.64,0.01-0.96,0.03c-5.61,0.34-10.97-2.08-15.02-5.98
				c-3.88-3.73-9.15-6.03-14.96-6.03c-8.62,0-16.06,5.05-19.52,12.35c-1.44,3.04-4.41,5.05-7.77,5.04l-0.21,0
				c-6.99,0-12.67,5.56-12.88,12.5H470.1z"/>
			<g>
				
					<ellipse transform="matrix(0.5682 -0.8229 0.8229 0.5682 -22.812 88.8031)" class="st8" cx="73.21" cy="66.14" rx="28.54" ry="28.54"/>
				<path class="st9" d="M83.67,86.93C68.17,89.77,53.3,79.5,50.46,64c-1.18-6.43-0.09-12.75,2.68-18.15
					c-6.47,6.41-9.77,15.8-8,25.43c2.84,15.5,17.71,25.77,33.21,22.93c9.07-1.66,16.34-7.45,20.25-15.06
					C94.66,83.05,89.54,85.85,83.67,86.93z"/>
				<path class="st9" d="M77.36,73.7c2.05,1.09,3.62,3.03,4.22,5.25c0.62,2.21,0.28,4.64-0.84,6.57c-1.11,1.95-3.01,3.37-5.11,3.94
					c-2.1,0.59-4.4,0.34-6.29-0.69c-1.91-1-3.4-2.77-4.08-4.83c-0.7-2.06-0.58-4.43,0.41-6.44c0.97-2.01,2.79-3.64,4.98-4.37
					C72.82,72.4,75.31,72.61,77.36,73.7z M76.62,75.1c-1.68-0.91-3.7-1.13-5.55-0.62c-1.86,0.5-3.54,1.74-4.54,3.47
					c-1,1.71-1.32,3.86-0.77,5.83c0.54,1.98,1.93,3.71,3.75,4.68c1.83,0.97,4.04,1.16,5.98,0.5c1.94-0.65,3.55-2.11,4.41-3.9
					c0.87-1.79,0.97-3.88,0.34-5.7C79.62,77.54,78.3,75.98,76.62,75.1z"/>
				<path class="st9" d="M93.7,50.72c1.54,0.82,2.71,2.29,3.15,3.96c0.45,1.66,0.17,3.47-0.68,4.9c-0.84,1.44-2.26,2.47-3.81,2.87
					c-1.55,0.42-3.23,0.23-4.62-0.53c-1.4-0.73-2.5-2.02-3.02-3.54c-0.53-1.51-0.47-3.26,0.25-4.77c0.71-1.5,2.05-2.74,3.68-3.3
					C90.28,49.75,92.16,49.9,93.7,50.72z M92.95,52.12c-1.17-0.64-2.58-0.8-3.88-0.46c-1.31,0.33-2.51,1.19-3.24,2.4
					c-0.73,1.2-0.98,2.74-0.61,4.16c0.37,1.43,1.37,2.68,2.68,3.39c1.32,0.7,2.92,0.83,4.31,0.34c1.39-0.49,2.52-1.55,3.11-2.83
					c0.6-1.28,0.64-2.76,0.18-4.03C95.05,53.81,94.13,52.73,92.95,52.12z"/>
				<path class="st9" d="M60.78,61.63c2.49,1.32,3.43,4.41,2.11,6.9c-1.32,2.49-4.41,3.43-6.9,2.11c-2.49-1.32-3.43-4.41-2.11-6.9
					C55.21,61.25,58.29,60.31,60.78,61.63z"/>
				<path class="st9" d="M91.87,72.44c1.35,0.72,1.87,2.4,1.15,3.76c-0.72,1.35-2.4,1.87-3.76,1.15c-1.35-0.72-1.87-2.4-1.15-3.76
					C88.84,72.24,90.52,71.72,91.87,72.44z"/>
				<path class="st9" d="M76.04,44.34c0.83,0.44,1.15,1.48,0.7,2.31c-0.44,0.83-1.48,1.15-2.31,0.7c-0.83-0.44-1.15-1.48-0.7-2.31
					C74.18,44.21,75.21,43.9,76.04,44.34z"/>
				<path class="st9" d="M63.93,43.74c0.59,0.31,0.81,1.04,0.5,1.63c-0.31,0.59-1.04,0.81-1.63,0.5c-0.59-0.31-0.81-1.04-0.5-1.63
					C62.61,43.65,63.34,43.43,63.93,43.74z"/>
				<path class="st9" d="M73.08,52.16c1.16,0.62,2.05,1.73,2.37,2.99c0.33,1.26,0.11,2.61-0.53,3.68c-1.29,2.2-4.24,2.88-6.3,1.73
					c-2.11-1.06-3.2-3.89-2.09-6.19c0.52-1.13,1.52-2.07,2.75-2.5C70.5,51.43,71.92,51.54,73.08,52.16z M72.38,53.47
					c-1.61-0.91-3.95-0.41-5.01,1.33c-0.53,0.85-0.72,1.93-0.46,2.95c0.26,1.02,0.97,1.92,1.91,2.42c0.94,0.5,2.09,0.59,3.08,0.23
					c0.99-0.36,1.78-1.12,2.19-2.03C74.93,56.52,74.04,54.31,72.38,53.47z"/>
			</g>
			<g>
				<path class="st3" d="M210.39,50.89c-0.6,0-1.19,0.04-1.76,0.12c-4.44,0.63-8.72-1.51-11.47-5.05
					c-3.39-4.37-8.69-7.19-14.65-7.19c-1.31,0-2.59,0.14-3.83,0.4c-6.47,1.37-13.12-0.58-18.06-4.99
					c-4.22-3.76-9.78-6.05-15.88-6.05c-8.53,0-16.01,4.48-20.23,11.21c-2.5,3.99-7.25,5.81-11.88,5c-0.9-0.16-1.82-0.24-2.76-0.24
					c-5.75,0-10.78,3.06-13.57,7.64c-1.77,2.92-5.26,4.47-8.59,3.74c-0.71-0.15-1.45-0.24-2.2-0.24c-5.54,0-10.04,4.37-10.28,9.85
					h147.5c0.08-0.56,0.13-1.14,0.13-1.72C222.87,56.48,217.29,50.89,210.39,50.89z"/>
				<path class="st3" d="M284.79,57.03c-0.01,0-0.02,0-0.04,0c-1.85,0.01-3.59-1-4.28-2.71c-2.11-5.25-7.24-8.95-13.24-8.95
					c-4.38,0-8.3,1.97-10.92,5.08c-2.09,2.48-5.41,3.41-8.55,2.57c-0.88-0.24-1.8-0.36-2.76-0.36c-5.88,0-10.64,4.77-10.64,10.64
					c0,0.61,0.06,1.21,0.16,1.8h58.71C293.02,60.61,289.33,57.03,284.79,57.03z"/>
			</g>
		</g>
		<path class="st3" d="M26.63,140.29c0.01,0,0.02,0,0.03,0c1.65,0.01,3.2-0.89,3.82-2.42c1.88-4.68,6.46-7.99,11.82-7.99
			c3.91,0,7.41,1.76,9.75,4.53c1.87,2.21,4.83,3.04,7.62,2.29c0.79-0.21,1.61-0.32,2.46-0.32c5.25,0,9.5,4.25,9.5,9.5
			c0,0.55-0.06,1.08-0.15,1.61H19.1C19.29,143.49,22.58,140.29,26.63,140.29z"/>
		<polygon class="st0" points="351.21,482.39 345.17,481.54 340.8,487.39 336.52,487.07 340.47,486.68 344.62,480.23 349.37,480.12 
			337.49,460.68 313.21,440.91 300.64,415.64 292.74,410.04 213.25,410.04 203,418.7 195.71,431.51 198.08,436.89 205.35,437.52 
			207.33,441.34 204.93,438.18 197.25,438.04 194.2,433.36 179.8,450.37 171.56,469.71 146.57,491.69 162.15,489.48 143.72,495.18 
			139.78,500 365.44,500 		"/>
		<g>
			<g>
				<path class="st8" d="M149.12,448.88c0,0-10.15-4.66-15.43,2.29c-5.04,7.04-7.44,35.47,14.31,33.98
					c2.13,2.03,13.38,5.52,21.05-0.03c19.51,0.53,16.84-30.81,5.97-36.35c-5.76-2.98-11.99,0.48-11.99,0.48
					C159.43,445.33,151.75,445.33,149.12,448.88z"/>
				<path class="st10" d="M152.12,450.5c2.14-1.01,4.8-1.16,7.2-0.12l-0.43-5.67l-2.02-4.78l-2.64-2.55l0.53-3.81l-1.37-0.3
					l-1.69,4.95l2.3,2.74l0.86,3.93L152.12,450.5z"/>
				<path class="st5" d="M147.79,485.46c-7.97-5.31-7.75-20.87-4.1-29.25c1.99-4.57,4.86-6.79,7.84-6.07l-0.17,0.73
					c-2.61-0.62-5.15,1.44-6.98,5.64c-1.87,4.28-2.73,10.22-2.25,15.5c0.55,6.03,2.71,10.58,6.07,12.82L147.79,485.46z"/>
				<path class="st5" d="M169.19,485.47l-0.29-0.69c2.97-1.24,3.93-9.58,2.33-20.28c-0.97-6.47-3.44-11.3-6.79-13.25
					c-1.48-0.86-3.02-1.05-4.35-0.53l-0.27-0.7c1.54-0.6,3.32-0.39,5,0.58c3.55,2.06,6.16,7.09,7.16,13.79
					C173.68,475.78,172.58,484.05,169.19,485.47z"/>
				<path class="st3" d="M138.16,467.64c2.2,0.95,4.37,1.75,6.53,2.38c0.61,3.1,2.73,4.66,2.73,4.66l1.12-3.69
					c5.31,1.11,11.33,1.09,16.35,0.13l1.99,3.56c0,0,1.39-1.75,1.23-4.47c2.78-0.87,5.51-2.09,8.19-3.66c0,0-0.58,13.55-18.38,13.48
					C140.11,479.97,138.16,467.64,138.16,467.64z"/>
				<path class="st3" d="M145.78,457.46c3.54,0.6,6.21,2.59,8.11,5.78c-2.92-0.94-6.25-1.17-9.87-0.92l2.53-2.22L145.78,457.46z"/>
				<path class="st3" d="M168.68,457.46c-3.54,0.6-6.21,2.59-8.11,5.78c2.92-0.94,6.25-1.17,9.87-0.92l-2.53-2.22L168.68,457.46z"/>
				<polygon class="st3" points="156.86,463.64 154.67,469.12 156.86,467.76 158.79,469.12 				"/>
			</g>
			<g>
				<path class="st8" d="M190.57,417.04c0,0-4.37-2.01-6.65,0.99c-2.17,3.03-3.2,15.28,6.16,14.64c0.92,0.87,5.76,2.38,9.07-0.01
					c8.4,0.23,7.25-13.27,2.57-15.66c-2.48-1.29-5.17,0.21-5.17,0.21C195.01,415.52,191.7,415.52,190.57,417.04z"/>
				<path class="st10" d="M191.86,417.74c0.92-0.44,2.07-0.5,3.1-0.05l-0.19-2.44l-0.87-2.06l-1.14-1.1l0.23-1.64l-0.59-0.13
					l-0.73,2.13l0.99,1.18l0.37,1.69L191.86,417.74z"/>
				<path class="st5" d="M189.88,432.98c-3.52-2.35-3.45-9.18-1.84-12.86c0.9-2.08,2.23-3.07,3.62-2.74l-0.17,0.73
					c-1.44-0.35-2.41,1.5-2.76,2.31c-1.46,3.36-1.58,9.83,1.57,11.94L189.88,432.98z"/>
				<path class="st5" d="M199.3,433l-0.29-0.69c1-0.42,1.62-3.48,0.88-8.51c-0.58-3.87-2.17-5.17-2.82-5.55
					c-0.58-0.34-1.18-0.41-1.69-0.21l-0.27-0.7c0.72-0.28,1.55-0.19,2.34,0.26c1.58,0.92,2.75,3.14,3.19,6.09
					C201.38,428.77,200.88,432.34,199.3,433z"/>
				<path class="st3" d="M185.85,425.13c5.52,2.44,12.77,1.9,16.43-0.47c0,0-0.25,5.84-7.92,5.81
					C186.69,430.44,185.85,425.13,185.85,425.13z"/>
				<path class="st3" d="M189.48,421.62c1.53,0.26,2.67,1.11,3.49,2.49c-1.26-0.4-2.69-0.51-4.25-0.4L189.48,421.62z"/>
				<path class="st3" d="M198.45,421.62c-1.53,0.26-2.67,1.11-3.49,2.49c1.26-0.4,2.69-0.51,4.25-0.4L198.45,421.62z"/>
			</g>
			<g>
				<path class="st8" d="M334.79,438.79c0,0-8.06-4.36-12.75,1.05c-4.5,5.49-7.98,28.64,9.9,28.58c1.64,1.77,10.66,5.23,17.24,1.1
					c15.94,1.48,15.43-24.32,6.83-29.44c-4.55-2.75-9.84-0.25-9.84-0.25C343.42,436.44,337.14,436.03,334.79,438.79z"/>
				<path class="st5" d="M331.71,468.72c-6.27-4.79-5.26-17.56-1.81-24.25c1.89-3.67,4.38-5.34,6.83-4.59l-0.22,0.72
					c-2.07-0.64-4.23,0.9-5.94,4.21c-1.75,3.4-2.77,8.2-2.66,12.54c0.13,4.94,1.64,8.77,4.26,10.77L331.71,468.72z"/>
				<path class="st5" d="M349.3,469.88l-0.24-0.71c2.02-0.69,3.8-6.12,2.95-16.41c-0.44-5.33-2.2-9.4-4.83-11.16
					c-1.15-0.77-2.38-1-3.47-0.66l-0.23-0.71c1.32-0.42,2.78-0.15,4.12,0.75c2.81,1.89,4.69,6.16,5.16,11.72
					C353.53,462.15,352.18,468.89,349.3,469.88z"/>
				<path class="st3" d="M324.82,453.57c8.2,5.03,24.66,4.81,31.28,1.15c0,0-0.55,6.18-5.45,9.84c-0.53-1.76-2.03-2.81-2.03-2.81
					s0.19,2.6-0.53,4.29c-2.03,0.87-4.58,1.34-7.76,1.12c-3.1-0.21-5.59-0.95-7.58-1.98l-0.49-4.4c-0.87,0.71-1.44,1.71-1.79,2.94
					C325.27,459.67,324.82,453.57,324.82,453.57z"/>
				<path class="st3" d="M332.23,444.43c2.32,1.59,4.24,3.68,5.7,6.37c-2.86,0.14-5.53-0.33-8.03-1.28
					C330.06,447.54,330.88,445.86,332.23,444.43z"/>
				<path class="st3" d="M349.15,445.57c-2.78,1.08-5.07,3.04-7.03,5.59c3.33,0.41,6.37,0.43,8.9-0.23
					C350.54,448.53,349.94,446.68,349.15,445.57z"/>
				<path class="st3" d="M340.35,451.29c-0.52-0.12-2.47,4.1-2.09,4.37c0.38,0.27,1.87-0.99,1.87-0.99s1,1.41,1.5,1.21
					C342.13,455.68,340.86,451.41,340.35,451.29z"/>
				<path class="st10" d="M337.21,440.41c1.73-0.58,3.88-0.67,5.82-0.07l-0.35-3.27l-1.63-2.76l-2.13-1.47l0.43-2.2l-1.11-0.17
					l-1.37,2.86l1.85,1.58l0.69,2.27L337.21,440.41z"/>
			</g>
		</g>
		<g>
			<g>
				<g>
					<g>
						<polygon class="st2" points="134.61,500 135.78,458.01 124.52,444.3 121.23,444.3 110.96,458.28 113.19,500 						"/>
						<polygon class="st5" points="116.38,500 114.5,458.56 124.82,444.52 124.22,444.08 113.74,458.33 115.63,500 						"/>
						<polygon class="st5" points="114.1,458.82 110.94,458.65 110.98,457.9 114.14,458.07 						"/>
					</g>
					<polygon class="st5" points="120.71,491.06 119.96,491.02 120.43,480.4 117.45,464.98 119.6,458.17 120.31,458.39 
						118.22,465.02 121.17,480.34 					"/>
					<polygon class="st5" points="129.28,466.23 126.16,457.29 127.44,448.73 128.18,448.84 126.93,457.22 129.99,465.98 					"/>
					<polygon class="st5" points="124.49,477.89 123.74,477.82 124.37,470.58 123.12,461.85 123.87,461.74 125.11,470.56 					"/>
				</g>
				<polygon class="st11" points="113.5,475.98 97.33,476.35 97.33,466.89 113.13,466.89 				"/>
				<g>
					<g>
						<polygon class="st2" points="105.39,500 106.56,458.01 95.3,444.3 92.02,444.3 81.74,458.28 83.97,500 						"/>
						<polygon class="st5" points="87.16,500 85.29,458.56 95.61,444.52 95,444.08 84.52,458.33 86.41,500 						"/>
						<polygon class="st5" points="84.88,458.82 81.72,458.65 81.76,457.9 84.92,458.07 						"/>
					</g>
					<polygon class="st5" points="96.94,491.91 96.19,491.84 97.86,472.91 93.67,465.88 95.83,459 96.55,459.22 94.48,465.79 
						98.63,472.73 98.62,472.85 					"/>
					<polygon class="st5" points="91.29,469.3 88.18,460.36 89.45,451.8 90.19,451.91 88.95,460.29 92,469.05 					"/>
					<polygon class="st5" points="102.13,499.94 101.38,499.87 102,492.63 100.76,483.9 101.5,483.79 102.75,492.61 					"/>
				</g>
				<polygon class="st11" points="84.28,475.98 68.11,476.35 68.11,466.89 83.91,466.89 				"/>
				<g>
					<g>
						<polygon class="st2" points="76.72,500 77.89,458.01 66.63,444.3 63.35,444.3 53.07,458.28 55.3,500 						"/>
						<polygon class="st5" points="58.49,500 56.62,458.56 66.94,444.52 66.33,444.08 55.85,458.33 57.74,500 						"/>
						<polygon class="st5" points="56.21,458.82 53.05,458.65 53.09,457.9 56.26,458.07 						"/>
					</g>
					<polygon class="st5" points="71.55,491.23 71.05,480.6 74.2,465.19 71.97,458.56 72.68,458.33 74.98,465.15 74.96,465.24 
						71.79,480.66 72.3,491.19 					"/>
					<polygon class="st5" points="66.28,464.13 63.17,455.19 64.44,446.63 65.18,446.74 63.93,455.12 66.99,463.88 					"/>
					<polygon class="st5" points="62.91,476.61 62.17,476.54 62.79,469.3 61.55,460.57 62.29,460.46 63.54,469.28 					"/>
				</g>
				<polygon class="st11" points="55.61,475.98 39.44,476.35 39.44,466.89 55.24,466.89 				"/>
				<g>
					<g>
						<polygon class="st2" points="48.33,500 49.5,458.01 38.24,444.3 34.96,444.3 24.68,458.28 26.91,500 						"/>
						<polygon class="st5" points="30.1,500 28.22,458.56 38.55,444.52 37.94,444.08 27.46,458.33 29.35,500 						"/>
						<polygon class="st5" points="27.82,458.82 24.66,458.65 24.7,457.9 27.86,458.07 						"/>
					</g>
					<polygon class="st5" points="45.35,484.94 44.6,484.91 45.07,474.28 42.1,458.86 44.24,452.05 44.96,452.27 42.87,458.91 
						45.82,474.23 					"/>
					<polygon class="st5" points="32.79,469.18 32.05,469.12 32.67,461.87 31.43,453.14 32.17,453.04 33.41,461.85 					"/>
				</g>
				<polygon class="st11" points="27.22,475.98 11.05,476.35 11.05,466.89 26.85,466.89 				"/>
				<g>
					<g>
						<polygon class="st2" points="9.27,444.3 5.98,444.3 0,452.44 0,500 19.36,500 20.53,458.01 						"/>
						<polygon class="st5" points="0,457.54 9.57,444.52 8.97,444.08 0,456.28 						"/>
						<polygon class="st5" points="0,491.65 0.38,500 1.13,500 0,475.07 						"/>
					</g>
					<polygon class="st5" points="5.46,491.06 4.71,491.02 5.18,480.4 2.2,464.98 4.35,458.17 5.06,458.39 2.97,465.02 5.92,480.34 
											"/>
					<polygon class="st5" points="14.03,466.23 10.91,457.29 12.19,448.73 12.93,448.84 11.68,457.22 14.74,465.98 					"/>
					<polygon class="st5" points="9.24,477.89 8.49,477.82 9.12,470.58 7.87,461.85 8.62,461.74 9.86,470.56 					"/>
				</g>
			</g>
			<g>
				<g>
					<g>
						<polygon class="st2" points="387.26,500 389.53,458.28 379.09,444.3 375.75,444.3 364.31,458.01 365.5,500 						"/>
						<polygon class="st5" points="384.02,500 384.78,500 386.69,458.46 386.7,458.33 376.05,444.08 375.45,444.52 385.93,458.56 
													"/>
						
							<rect x="386.31" y="457.99" transform="matrix(0.9986 -0.0526 0.0526 0.9986 -23.5579 21.0251)" class="st5" width="3.22" height="0.75"/>
					</g>
					<polygon class="st5" points="379.63,491.06 379.15,480.43 382.15,465.02 380.03,458.39 380.75,458.16 382.93,464.98 
						382.91,465.07 379.9,480.48 380.38,491.02 					"/>
					<polygon class="st5" points="370.91,466.23 370.2,465.98 373.3,457.22 372.04,448.84 372.78,448.73 374.08,457.29 					"/>
					<polygon class="st5" points="375.78,477.89 375.15,470.64 376.42,461.74 377.16,461.85 375.9,470.66 376.53,477.82 					"/>
				</g>
				<polygon class="st11" points="386.95,475.98 403.38,476.35 403.38,466.89 387.32,466.89 				"/>
				<g>
					<g>
						<polygon class="st2" points="416.94,500 419.21,458.28 408.77,444.3 405.43,444.3 394,458.01 395.18,500 						"/>
						<polygon class="st5" points="413.71,500 414.46,500 416.38,458.46 416.38,458.33 405.74,444.08 405.13,444.52 415.62,458.56 
													"/>
						
							<rect x="416" y="457.99" transform="matrix(0.9986 -0.0527 0.0527 0.9986 -23.5752 22.6446)" class="st5" width="3.22" height="0.75"/>
					</g>
					<polygon class="st5" points="403.77,491.91 402.06,472.73 406.27,465.79 404.17,459.22 404.89,459 407.09,465.88 
						402.83,472.91 404.52,491.84 					"/>
					<polygon class="st5" points="409.5,469.3 408.79,469.05 411.9,460.29 410.63,451.91 411.37,451.8 412.67,460.36 					"/>
					<polygon class="st5" points="398.5,499.94 397.87,492.69 399.14,483.79 399.89,483.9 398.62,492.71 399.26,499.87 					"/>
				</g>
				<polygon class="st11" points="416.63,475.98 433.06,476.35 433.06,466.89 417,466.89 				"/>
				<g>
					<g>
						<polygon class="st2" points="446.07,500 448.34,458.28 437.9,444.3 434.56,444.3 423.12,458.01 424.31,500 						"/>
						<polygon class="st5" points="442.83,500 443.59,500 445.5,458.46 445.51,458.33 434.86,444.08 434.26,444.52 444.74,458.56 
													"/>
						
							<rect x="445.12" y="457.99" transform="matrix(0.9986 -0.0526 0.0526 0.9986 -23.4766 24.1165)" class="st5" width="3.22" height="0.75"/>
					</g>
					<polygon class="st5" points="429.56,491.23 428.81,491.19 429.32,480.61 426.09,465.15 428.42,458.33 429.13,458.57 
						426.87,465.19 430.08,480.55 430.07,480.6 					"/>
					<polygon class="st5" points="434.91,464.13 434.2,463.88 437.31,455.12 436.04,446.74 436.78,446.63 438.08,455.19 					"/>
					<polygon class="st5" points="438.34,476.61 437.71,469.36 438.98,460.46 439.72,460.57 438.46,469.38 439.09,476.54 					"/>
				</g>
				<polygon class="st11" points="445.76,475.98 462.19,476.35 462.19,466.89 446.13,466.89 				"/>
				<g>
					<g>
						<polygon class="st2" points="474.91,500 477.18,458.28 466.74,444.3 463.4,444.3 451.97,458.01 453.15,500 						"/>
						<polygon class="st5" points="471.68,500 472.43,500 474.35,458.46 474.35,458.33 463.71,444.08 463.1,444.52 473.59,458.56 
													"/>
						
							<rect x="473.97" y="457.99" transform="matrix(0.9986 -0.0526 0.0526 0.9986 -23.4367 25.6327)" class="st5" width="3.22" height="0.75"/>
					</g>
					<polygon class="st5" points="456.18,484.94 455.71,474.32 458.71,458.91 456.59,452.27 457.31,452.05 459.48,458.86 
						459.46,458.96 456.45,474.37 456.94,484.91 					"/>
					<polygon class="st5" points="468.94,469.18 468.31,461.94 469.58,453.04 470.33,453.14 469.06,461.96 469.7,469.12 					"/>
				</g>
				<polygon class="st11" points="474.6,475.98 491.03,476.35 491.03,466.89 474.97,466.89 				"/>
				<g>
					<g>
						<polygon class="st2" points="500,449.42 496.18,444.3 492.84,444.3 481.4,458.01 482.59,500 500,500 						"/>
						<polygon class="st5" points="500,453.26 493.14,444.08 492.53,444.52 500,454.52 						"/>
					</g>
					<polygon class="st5" points="500,465.05 500,464.93 497.84,458.16 497.12,458.39 499.24,465.02 496.24,480.43 496.72,491.06 
						497.47,491.02 496.98,480.48 500,465.07 					"/>
					<polygon class="st5" points="488,466.23 487.29,465.98 490.39,457.22 489.12,448.84 489.87,448.73 491.17,457.29 					"/>
					<polygon class="st5" points="492.87,477.89 492.24,470.64 493.51,461.74 494.25,461.85 492.99,470.66 493.62,477.82 					"/>
				</g>
			</g>
		</g>
		<g>
			<path class="st3" d="M140.12,264.91c-0.04,0.74,0.31,1.24,0.93,1.55l1.75,1.66c-0.29,0.21-0.52,0.5-0.66,0.8l0.51,0.01l0.43-0.41
				l0.51,0.42l1.67,0.02c0,0-0.38-0.82-1.86-1.05l-1.91-1.67c0.2-0.54,0.29-1.1,0.29-1.69L140.12,264.91z"/>
			<path class="st3" d="M137.73,264.55c-0.22,0.55-0.11,1.06,0.33,1.53l1.05,1.94c-0.46,0.24-0.8,0.53-1.07,0.86h0.49l0.77-0.38
				l0.37,0.41l1.87,0.02c-0.6-0.51-1.22-0.87-1.83-0.99l-1.09-1.87c0.26-0.39,0.42-0.83,0.49-1.33L137.73,264.55z"/>
			<path class="st3" d="M142.6,254.06c-0.45-0.09-0.84-0.23-1.15-0.43c0.11-0.33,0.48-0.58,1.31-0.69c1.13-1.05,3.42-0.49,3.52,1.44
				c0.51,6.24-1.26,9.23-4.57,10.42c-2.09,0.67-3.19,0.24-4.67-0.3c-1.89,0.08-3.87,0.63-5.91,1.48l0.28-0.38l-1.04,0.53l-0.96,0.09
				l0.78-0.66l-1.33,0.16c0.61-0.57,2.92-1.43,4.97-2.6c-0.85,0.34-1.68,0.62-2.48,0.82c2.05-1.71,4.09-3.29,6.1-4.47
				c0,0,1.14-1.14,1.88-1.69c0.74-0.55,3-1.77,3.32-2.46C143,254.64,142.6,254.06,142.6,254.06z"/>
		</g>
		<g>
			<path class="st3" d="M316.67,362.69c0,0,4.04-1.63,7.96-1.63c3.92,0,6.93,4.89,4.5,8.9l-18.81-0.26c0,0-0.29-2.78,0.82-4.46
				c0,0-2.39-1.5-2.39-3.79c0-0.98,0.24-1.76,0.72-2.34c0.25-0.3-0.13-2.01,0.25-2.2c0.26-0.13,1.24,1.22,1.56,1.14
				c0.39-0.1,0.83-0.15,1.31-0.17c0.56-0.02,1.12,0.05,1.64,0.2c0.33,0.1,1.2-1.46,1.49-1.3c0.3,0.17,0.03,2.06,0.27,2.3
				C316.82,359.9,317.2,361.11,316.67,362.69z"/>
			<path class="st3" d="M328.64,379.28c-0.02,0-0.03,0-0.05,0c-0.55-0.03-0.98-0.5-0.95-1.05c0.04-0.79-0.3-1.36-0.73-2.09
				c-0.34-0.58-0.72-1.23-0.92-2.04c-0.48-1.95,1.41-5.24,1.79-5.88c0.28-0.47,0.9-0.63,1.37-0.34c0.47,0.28,0.63,0.9,0.34,1.37
				c-0.76,1.26-1.78,3.53-1.57,4.38c0.13,0.53,0.41,1.01,0.71,1.51c0.5,0.85,1.07,1.82,1,3.21
				C329.62,378.86,329.17,379.28,328.64,379.28z"/>
		</g>
		<path class="st3" d="M265.01,171.63c-0.99,6.51-3.97,10.07-10.18,8.83c0.92-1.21,1.24-2.56,1.1-4.01c0,0-2.68-0.16-3.68,1.92
			l-1.98-0.68l-2.01,0.56c-0.88-2.13-3.57-2.12-3.57-2.12c-0.22,1.45,0.02,2.81,0.87,4.07c-6.28,0.88-9.04-2.85-9.66-9.4
			c-13.57-4.73-23.18-2.57-29.2,5.8c6.06-0.53,10.04,1.78,11.5,7.54c4.89-0.05,9.14,1.62,11.87,7.44c3.22-2.88,10.07-2.2,14.36,1.86
			c2.72,0.61,4.59,2.09,5.25,4.82c0.65-2.18,2.22-3.83,5.52-4.51c4.52-3.81,11.39-4.1,14.45-1.04c3.06-5.66,7.4-7.08,12.28-6.75
			c1.79-5.66,5.89-7.74,11.92-6.87C288.3,170.39,278.83,167.69,265.01,171.63z"/>
	</g>
</g>
</svg>
