<?xml version="1.0" encoding="utf-8"?>
<!-- Generator: Adobe Illustrator 26.5.0, SVG Export Plug-In . SVG Version: 6.00 Build 0)  -->
<svg version="1.1" id="Шар_1" xmlns="http://www.w3.org/2000/svg" xmlns:xlink="http://www.w3.org/1999/xlink" x="0px" y="0px"
	 viewBox="0 0 1348.27 563.52" style="enable-background:new 0 0 1348.27 563.52;" xml:space="preserve">
<style type="text/css">
	.st0{fill:#303030;}
</style>
<g>
	<path class="st0" d="M1089.86,170.27c2.38,18.01-9.35,31.58-9.35,31.58c-2.46-4.68-8.51-5.68-8.51-5.68
		c0.91,2.03,1.02,6.32,1.02,6.32c-2.17-0.2-5.92,1.3-5.92,1.3s-3.62,1.8-4.91,3.56c0,0-3.13-2.94-4.03-4.97
		c0,0-3.29,5.18-1.43,10.13c0,0-17.93-0.28-29.79-14.04c-11.71-2.53-36.85,6.48-45.57,30.81c0,0,23.84-8.69,36.87,7.88
		c0,0,16.7-12.36,33.66,3.72c0,0,6.08-5.79,17.52,1.19c0,0,9.66-3.06,19.97,11.48c-3.99-17.37,4.72-22.54,4.72-22.54
		c2.41-13.19,10.78-13.87,10.78-13.87c-0.7-23.36,19.63-27.59,19.63-27.59c-3.7-20.76,18.66-32.76,18.66-32.76
		C1119.22,147.09,1095.77,159.85,1089.86,170.27z"/>
	<path class="st0" d="M894.94,10.9c-6.3,17.04-23.01,23.56-23.01,23.56c0.01-5.29-4.88-8.99-4.88-8.99
		c-0.14,2.22-2.05,6.07-2.05,6.07c-1.82-1.19-5.85-1.62-5.85-1.62s-4.04-0.1-6.01,0.85c0,0-1.39-4.06-1.25-6.28
		c0,0-5.32,3.05-5.99,8.29c0,0-15.72-8.62-19.79-26.32c-9.18-7.7-35.61-11.47-54.68,5.98c0,0,25.14,3.44,28.93,24.18
		c0,0,20.54-3.14,28.03,19c0,0,8.08-2.29,14.94,9.23c0,0,9.97,1.8,12.3,19.47c4.58-17.23,14.7-17.73,14.7-17.73
		c8.28-10.54,16-7.24,16-7.24c10.28-20.99,30.25-15.24,30.25-15.24c6.42-20.08,31.8-20.26,31.8-20.26
		C931.74,4.1,905.03,4.45,894.94,10.9z"/>
	<path class="st0" d="M1313.6,511.86c-15.34,9.73-32.58,4.79-32.58,4.79c3.22-4.2,1.58-10.11,1.58-10.11
		c-1.46,1.68-5.3,3.59-5.3,3.59c-0.73-2.05-3.67-4.83-3.67-4.83s-3.16-2.53-5.29-2.96c0,0,1.35-4.07,2.81-5.75
		c0,0-6.08-0.8-9.79,2.96c0,0-7.28-16.39,0.21-32.93c-2.63-11.68-21.37-30.71-47.11-28.39c0,0,17.91,17.98,8.35,36.77
		c0,0,18.24,9.95,10.78,32.1c0,0,7.81,3.08,6.29,16.4c0,0,6.84,7.48-2.02,22.94c14.09-10.92,22.44-5.19,22.44-5.19
		c12.98-3.36,17.12,3.95,17.12,3.95c20.9-10.46,33.29,6.21,33.29,6.21c17.28-12.08,37.57,3.16,37.57,3.16
		C1346.98,528.75,1325.54,512.84,1313.6,511.86z"/>
	<path class="st0" d="M95.66,481.61c5.68,17.25-3.33,32.77-3.33,32.77c-3.29-4.15-9.41-4-9.41-4c1.27,1.83,2.18,6.02,2.18,6.02
		c-2.17,0.21-5.58,2.38-5.58,2.38s-3.23,2.44-4.17,4.4c0,0-3.62-2.31-4.89-4.14c0,0-2.27,5.7,0.48,10.22c0,0-17.67,3.05-31.88-8.27
		C27.08,520.68,4.05,534.19,0,559.72c0,0,21.81-12.97,37.7,0.9c0,0,14.11-15.25,33.77-2.59c0,0,4.9-6.82,17.44-2.08
		c0,0,8.92-4.8,21.75,7.57c-7.14-16.33,0.46-23.03,0.46-23.03c-0.08-13.4,8.02-15.63,8.02-15.63
		c-5.03-22.83,14.17-30.76,14.17-30.76c-7.49-19.71,12.26-35.66,12.26-35.66C120.21,453.37,99.53,470.27,95.66,481.61z"/>
	<path class="st0" d="M501.23,36.93c-4.44,17.61-20.35,25.89-20.35,25.89c-0.56-5.26-5.81-8.42-5.81-8.42
		c0.1,2.23-1.38,6.25-1.38,6.25c-1.94-0.99-5.99-0.98-5.99-0.98s-4.03,0.34-5.88,1.49c0,0-1.82-3.88-1.92-6.11
		c0,0-4.96,3.6-5.07,8.89c0,0-16.56-6.88-22.5-24.05c-9.95-6.67-36.63-7.58-53.72,11.81c0,0,25.37,0.72,31.36,20.94
		c0,0,20.08-5.33,29.91,15.88c0,0,7.79-3.14,15.85,7.57c0,0,10.1,0.72,14.32,18.04c2.71-17.62,12.71-19.2,12.71-19.2
		c7.11-11.37,15.14-8.91,15.14-8.91c7.97-21.97,28.44-18.4,28.44-18.4c4.23-20.66,29.44-23.56,29.44-23.56
		C537.08,26.23,510.56,29.43,501.23,36.93z"/>
	<path class="st0" d="M273.26,212.09c-17.39,15.14-39.98,12.24-39.98,12.24c3.23-5.89,0.04-12.99,0.04-12.99
		c-1.51,2.39-5.97,5.52-5.97,5.52c-1.31-2.44-5.53-5.36-5.53-5.36s-4.44-2.57-7.21-2.71c0,0,0.92-5.37,2.43-7.76
		c0,0-7.78,0.16-11.72,5.59c0,0-12.28-19.17-6.03-41.38c-5.53-14.16-32.69-34.46-64.56-26.62c0,0,25.92,19.14,17.52,44.55
		c0,0,24.79,9,19.67,38.23c0,0,10.4,2.37,11.03,19.38c0,0,10.01,8.07,1.85,29.18c15.59-16.4,27.17-10.81,27.17-10.81
		c15.64-6.7,22.24,1.68,22.24,1.68c24.23-17.13,42.97,1.43,42.97,1.43c19.38-18.47,47.76-3.23,47.76-3.23
		C318.39,226.9,288.43,211.03,273.26,212.09z"/>
</g>
</svg>
