<?xml version="1.0" encoding="utf-8"?>
<!-- Generator: Adobe Illustrator 26.5.0, SVG Export Plug-In . SVG Version: 6.00 Build 0)  -->
<svg version="1.1" id="Шар_1" xmlns="http://www.w3.org/2000/svg" xmlns:xlink="http://www.w3.org/1999/xlink" x="0px" y="0px"
	 viewBox="0 0 872.11 1195.57" style="enable-background:new 0 0 872.11 1195.57;" xml:space="preserve">
<style type="text/css">
	.st0{fill:#ADA395;}
	.st1{fill:#999083;}
	.st2{fill:#756E64;}
	.st3{fill:#8C7E69;}
	.st4{fill:#C4BBAE;}
	.st5{fill:#FFA513;}
	.st6{fill:#B85A0D;}
	.st7{fill:#404040;}
	.st8{fill:#D67500;}
	.st9{fill:#D9D5D0;}
	.st10{fill:#4D4D4D;}
	.st11{fill:#383838;}
	.st12{fill:#C9C9C9;}
	.st13{fill:#898989;}
	.st14{fill:#424242;}
	.st15{fill:#717171;}
	.st16{fill:#7A7A7A;}
	.st17{fill:#E0E0E0;}
	.st18{display:none;fill:#7A7A7A;}
	.st19{fill:#FF9C00;}
	.st20{font-family:'ElliotSix';}
	.st21{font-size:69.7352px;}
</style>
<g>
	<polygon class="st0" points="781.43,1157.45 90.68,1157.45 90.68,652.81 436.06,48.11 781.43,652.81 	"/>
	<g>
		<path class="st1" d="M298.76,485.08c0,1.81-1.46,3.27-3.27,3.27H260.9c-1.8,0-3.27-1.46-3.27-3.27v-10.33
			c0-1.8,1.46-3.27,3.27-3.27h34.58c1.81,0,3.27,1.46,3.27,3.27V485.08z"/>
		<path class="st2" d="M346.6,485.08c0,1.81-1.46,3.27-3.27,3.27h-34.59c-1.8,0-3.26-1.46-3.26-3.27v-10.33
			c0-1.8,1.46-3.27,3.26-3.27h34.59c1.81,0,3.27,1.46,3.27,3.27V485.08z"/>
		<path class="st3" d="M319.31,505.88c0,1.8-1.46,3.27-3.27,3.27h-34.59c-1.8,0-3.26-1.47-3.26-3.27v-10.34
			c0-1.8,1.46-3.27,3.26-3.27h34.59c1.8,0,3.27,1.46,3.27,3.27V505.88z"/>
		<path class="st4" d="M367.16,505.88c0,1.8-1.46,3.27-3.27,3.27h-34.59c-1.8,0-3.27-1.47-3.27-3.27v-10.34
			c0-1.8,1.47-3.27,3.27-3.27h34.59c1.8,0,3.27,1.46,3.27,3.27V505.88z"/>
	</g>
	<g>
		<path class="st1" d="M606.45,605.17c0,1.81-1.46,3.28-3.27,3.28H568.6c-1.8,0-3.26-1.46-3.26-3.28v-10.33
			c0-1.8,1.46-3.27,3.26-3.27h34.58c1.81,0,3.27,1.46,3.27,3.27V605.17z"/>
		<path class="st2" d="M654.3,605.17c0,1.81-1.46,3.28-3.27,3.28h-34.59c-1.8,0-3.26-1.46-3.26-3.28v-10.33
			c0-1.8,1.46-3.27,3.26-3.27h34.59c1.81,0,3.27,1.46,3.27,3.27V605.17z"/>
		<path class="st3" d="M627.01,625.98c0,1.8-1.46,3.27-3.27,3.27h-34.59c-1.8,0-3.26-1.47-3.26-3.27v-10.34
			c0-1.8,1.46-3.26,3.26-3.26h34.59c1.8,0,3.27,1.46,3.27,3.26V625.98z"/>
		<path class="st4" d="M674.86,625.98c0,1.8-1.46,3.27-3.27,3.27H637c-1.8,0-3.26-1.47-3.26-3.27v-10.34c0-1.8,1.46-3.26,3.26-3.26
			h34.59c1.8,0,3.27,1.46,3.27,3.26V625.98z"/>
	</g>
	<g>
		<path class="st1" d="M530.16,448.59c0,1.81-1.46,3.27-3.27,3.27H492.3c-1.8,0-3.26-1.46-3.26-3.27v-10.33
			c0-1.8,1.46-3.27,3.26-3.27h34.59c1.81,0,3.27,1.46,3.27,3.27V448.59z"/>
		<path class="st2" d="M578.01,448.59c0,1.81-1.46,3.27-3.27,3.27h-34.59c-1.8,0-3.26-1.46-3.26-3.27v-10.33
			c0-1.8,1.46-3.27,3.26-3.27h34.59c1.81,0,3.27,1.46,3.27,3.27V448.59z"/>
		<path class="st3" d="M550.72,469.39c0,1.8-1.46,3.27-3.27,3.27h-34.59c-1.8,0-3.26-1.47-3.26-3.27v-10.34
			c0-1.8,1.46-3.27,3.26-3.27h34.59c1.8,0,3.27,1.46,3.27,3.27V469.39z"/>
		<path class="st4" d="M598.57,469.39c0,1.8-1.46,3.27-3.27,3.27h-34.58c-1.8,0-3.27-1.47-3.27-3.27v-10.34
			c0-1.8,1.47-3.27,3.27-3.27h34.58c1.8,0,3.27,1.46,3.27,3.27V469.39z"/>
	</g>
	<g>
		<path class="st1" d="M194.47,625.22c0,1.82-1.46,3.28-3.27,3.28h-34.58c-1.8,0-3.27-1.46-3.27-3.28v-10.33
			c0-1.8,1.46-3.27,3.27-3.27h34.58c1.81,0,3.27,1.46,3.27,3.27V625.22z"/>
		<path class="st2" d="M242.32,625.22c0,1.82-1.46,3.28-3.27,3.28h-34.59c-1.8,0-3.26-1.46-3.26-3.28v-10.33
			c0-1.8,1.46-3.27,3.26-3.27h34.59c1.81,0,3.27,1.46,3.27,3.27V625.22z"/>
		<path class="st3" d="M215.03,646.02c0,1.8-1.46,3.27-3.27,3.27h-34.59c-1.8,0-3.26-1.47-3.26-3.27v-10.34
			c0-1.8,1.46-3.26,3.26-3.26h34.59c1.8,0,3.27,1.46,3.27,3.26V646.02z"/>
		<path class="st4" d="M262.88,646.02c0,1.8-1.46,3.27-3.27,3.27h-34.59c-1.8,0-3.27-1.47-3.27-3.27v-10.34
			c0-1.8,1.47-3.26,3.27-3.26h34.59c1.8,0,3.27,1.46,3.27,3.26V646.02z"/>
	</g>
	<g>
		<path class="st1" d="M176.83,799.7c0,1.81-1.46,3.28-3.27,3.28h-34.58c-1.8,0-3.26-1.46-3.26-3.28v-10.34
			c0-1.8,1.46-3.26,3.26-3.26h34.58c1.81,0,3.27,1.46,3.27,3.26V799.7z"/>
		<path class="st2" d="M224.68,799.7c0,1.81-1.46,3.28-3.27,3.28h-34.59c-1.8,0-3.26-1.46-3.26-3.28v-10.34
			c0-1.8,1.46-3.26,3.26-3.26h34.59c1.8,0,3.27,1.46,3.27,3.26V799.7z"/>
		<path class="st3" d="M197.39,820.5c0,1.8-1.46,3.27-3.27,3.27h-34.59c-1.8,0-3.26-1.47-3.26-3.27v-10.34
			c0-1.8,1.46-3.26,3.26-3.26h34.59c1.8,0,3.27,1.46,3.27,3.26V820.5z"/>
		<path class="st4" d="M245.23,820.5c0,1.8-1.46,3.27-3.27,3.27h-34.58c-1.8,0-3.27-1.47-3.27-3.27v-10.34
			c0-1.8,1.47-3.26,3.27-3.26h34.58c1.8,0,3.27,1.46,3.27,3.26V820.5z"/>
	</g>
	<g>
		<path class="st1" d="M685.3,1018.16c0,1.81-1.46,3.28-3.27,3.28h-34.58c-1.8,0-3.26-1.46-3.26-3.28v-10.34
			c0-1.8,1.46-3.26,3.26-3.26h34.58c1.81,0,3.27,1.46,3.27,3.26V1018.16z"/>
		<path class="st2" d="M733.15,1018.16c0,1.81-1.46,3.28-3.27,3.28h-34.59c-1.8,0-3.26-1.46-3.26-3.28v-10.34
			c0-1.8,1.46-3.26,3.26-3.26h34.59c1.8,0,3.27,1.46,3.27,3.26V1018.16z"/>
		<path class="st3" d="M705.86,1038.97c0,1.8-1.46,3.27-3.27,3.27h-34.59c-1.8,0-3.26-1.47-3.26-3.27v-10.34
			c0-1.8,1.46-3.26,3.26-3.26h34.59c1.8,0,3.27,1.46,3.27,3.26V1038.97z"/>
		<path class="st4" d="M753.71,1038.97c0,1.8-1.46,3.27-3.27,3.27h-34.58c-1.8,0-3.27-1.47-3.27-3.27v-10.34
			c0-1.8,1.47-3.26,3.27-3.26h34.58c1.8,0,3.27,1.46,3.27,3.26V1038.97z"/>
	</g>
	<g>
		<path class="st1" d="M422.41,187.55c0,1.81-1.46,3.27-3.27,3.27h-34.58c-1.8,0-3.27-1.46-3.27-3.27v-10.33
			c0-1.8,1.46-3.27,3.27-3.27h34.58c1.81,0,3.27,1.46,3.27,3.27V187.55z"/>
		<path class="st2" d="M470.26,187.55c0,1.81-1.46,3.27-3.27,3.27H432.4c-1.8,0-3.26-1.46-3.26-3.27v-10.33
			c0-1.8,1.46-3.27,3.26-3.27h34.59c1.8,0,3.27,1.46,3.27,3.27V187.55z"/>
		<path class="st3" d="M442.97,208.35c0,1.8-1.46,3.27-3.27,3.27h-34.59c-1.8,0-3.26-1.47-3.26-3.27v-10.34
			c0-1.8,1.46-3.27,3.26-3.27h34.59c1.8,0,3.27,1.46,3.27,3.27V208.35z"/>
		<path class="st4" d="M490.82,208.35c0,1.8-1.46,3.27-3.26,3.27h-34.59c-1.8,0-3.27-1.47-3.27-3.27v-10.34
			c0-1.8,1.47-3.27,3.27-3.27h34.59c1.8,0,3.26,1.46,3.26,3.27V208.35z"/>
	</g>
	<g>
		<g>
			<rect x="361.85" y="307.5" class="st5" width="70.3" height="39.37"/>
			<path class="st5" d="M439.95,249.03v50.38h70.3C510.26,264.74,470.81,249.03,439.95,249.03z"/>
			<rect x="439.95" y="307.5" class="st5" width="70.31" height="39.37"/>
			<path class="st5" d="M361.85,299.41h70.3v-50.38C401.3,249.03,361.85,264.74,361.85,299.41z"/>
			<g>
				<path class="st5" d="M510.26,354.07h-70.3v50.37C470.81,404.44,510.26,388.74,510.26,354.07z"/>
				<path class="st5" d="M432.16,404.44v-50.37h-70.31C361.85,388.74,401.3,404.44,432.16,404.44z"/>
			</g>
		</g>
		<g>
			<path class="st6" d="M446.07,253.98c16.9,0,36.35,4.72,50.52,14.67c-14.24-13.35-37.14-19.62-56.63-19.62v50.38h6.11V253.98z"/>
			<polygon class="st6" points="367.97,312.45 432.15,312.45 432.15,307.5 361.85,307.5 361.85,346.87 367.97,346.87 			"/>
			<path class="st6" d="M432.15,254.19v-5.15c-30.85,0-70.3,15.7-70.3,50.38h6.42C371.59,270.33,404.01,256,432.15,254.19z"/>
			<path class="st6" d="M446.07,359.02h63.88c0.18-1.61,0.3-3.25,0.3-4.95h-70.3v50.37c2.01,0,4.05-0.07,6.11-0.21V359.02z"/>
			<path class="st6" d="M367.97,359.02h64.19v-4.95h-70.31c0,15.68,8.09,27.48,19.79,35.7
				C373.33,381.98,367.97,371.79,367.97,359.02z"/>
			<polygon class="st6" points="446.07,312.45 510.26,312.45 510.26,307.5 439.95,307.5 439.95,346.87 446.07,346.87 			"/>
		</g>
	</g>
	<g>
		<path class="st7" d="M559.68,846.24c-1.59-54.98-59.01-85.15-114.34-86.4v-0.04h-18.58v0.04c-55.33,1.25-112.75,31.42-114.34,86.4
			h-0.03v306.64h247.33V846.24H559.68z"/>
		<g>
			<rect x="327.4" y="861.24" class="st5" width="102.95" height="276.64"/>
			<path class="st8" d="M441.77,774.8v73.78h102.95C544.72,797.79,486.95,774.8,441.77,774.8z"/>
			<path class="st8" d="M327.4,848.58h102.95V774.8C385.16,774.8,327.4,797.79,327.4,848.58z"/>
			<rect x="441.77" y="861.24" class="st5" width="102.96" height="276.64"/>
		</g>
		<path class="st8" d="M441.77,861.24c0,0,10.32,108.67,102.96,149.17V861.24H441.77z"/>
		<path class="st8" d="M430.35,861.24c0,0-10.32,108.67-102.95,149.17V861.24H430.35z"/>
	</g>
	<path class="st9" d="M436.06,48.11L90.68,652.81v76.95v71.64h690.75v-71.64v-76.95L436.06,48.11z M152.94,729.76l283.12-495.7
		l283.12,495.7H152.94z"/>
	<polygon class="st10" points="849.9,746.4 443.31,42.13 436.06,46.32 428.81,42.13 22.21,746.4 42.97,758.38 436.06,77.53 
		829.14,758.38 	"/>
	<path class="st11" d="M871.05,728.86l-48.96-60.31l7.72-4.46c1.94-1.12,2.2-3.67,0.58-5.67l-48.96-60.3l7.72-4.45
		c1.94-1.12,2.2-3.67,0.58-5.66l-48.96-60.31l7.72-4.46c1.94-1.12,2.2-3.66,0.58-5.66l-48.97-60.3l7.72-4.46
		c1.95-1.12,2.21-3.66,0.58-5.66l-48.96-60.3l7.73-4.46c1.94-1.12,2.2-3.67,0.58-5.67l-48.97-60.3l7.72-4.46
		c1.94-1.12,2.2-3.67,0.58-5.66L578.13,246l7.72-4.46c1.94-1.11,2.2-3.66,0.58-5.67l-48.97-60.3l7.72-4.46
		c1.94-1.12,2.2-3.66,0.58-5.66l-48.96-60.3l7.71-4.46c1.95-1.12,2.21-3.67,0.59-5.66l-48.97-60.31l-0.03,0.02L436.06,0L416,34.74
		l-0.03-0.02L367,95.03c-1.62,1.99-1.35,4.54,0.59,5.66l7.72,4.46l-48.96,60.3c-1.62,2-1.36,4.54,0.58,5.66l7.72,4.46l-48.96,60.3
		c-1.62,2-1.36,4.55,0.58,5.67l7.72,4.46l-48.96,60.31c-1.62,1.99-1.36,4.54,0.58,5.66l7.72,4.46l-48.97,60.3
		c-1.62,2-1.36,4.55,0.58,5.67l7.72,4.46l-48.96,60.3c-1.62,2-1.36,4.54,0.58,5.66l7.72,4.46l-48.97,60.3
		c-1.62,2-1.36,4.54,0.58,5.66l7.72,4.46l-48.96,60.31c-1.63,1.99-1.37,4.54,0.58,5.66l7.72,4.45l-48.96,60.3
		c-1.62,2-1.36,4.55,0.58,5.67l7.72,4.46L1.07,728.86c-1.62,1.99-1.36,4.54,0.58,5.66l20.57,11.87l203.3-352.13L413.02,69.48h46.07
		L646.6,394.27L849.9,746.4l20.57-11.87C872.41,733.4,872.67,730.85,871.05,728.86z"/>
	<g>
		<rect x="50.55" y="1070.55" class="st12" width="224.13" height="124.26"/>
		<rect x="597.43" y="1070.55" class="st12" width="224.13" height="124.26"/>
	</g>
	<g>
		<rect x="33.75" y="1061.55" class="st11" width="233.9" height="28.1"/>
		<rect x="604.46" y="1061.55" class="st11" width="233.9" height="28.1"/>
	</g>
	<g>
		<polygon class="st11" points="651.06,729.76 543.8,729.76 585.97,771.16 585.97,1162.6 608.88,1162.6 608.88,771.16 		"/>
		<polygon class="st11" points="328.31,729.76 221.06,729.76 263.23,771.16 263.23,1162.6 286.14,1162.6 286.14,771.16 		"/>
	</g>
	<rect x="253.45" y="1153.53" class="st13" width="365.21" height="42.04"/>
	<g>
		<g>
			<g>
				<rect x="627.78" y="900.96" class="st5" width="60.35" height="33.8"/>
				<path class="st5" d="M694.82,850.76v43.25h60.36C755.18,864.24,721.32,850.76,694.82,850.76z"/>
				<rect x="694.82" y="900.96" class="st5" width="60.36" height="33.8"/>
				<path class="st5" d="M627.78,894.01h60.35v-43.25C661.64,850.76,627.78,864.24,627.78,894.01z"/>
				<g>
					<path class="st5" d="M755.18,940.94h-60.35v43.24C721.32,984.18,755.18,970.7,755.18,940.94z"/>
					<path class="st5" d="M688.13,984.18v-43.24h-60.36C627.78,970.7,661.64,984.18,688.13,984.18z"/>
				</g>
			</g>
			<g>
				<path class="st6" d="M700.07,855.01c14.51,0,31.21,4.05,43.37,12.6c-12.23-11.46-31.89-16.85-48.62-16.85v43.25h5.25V855.01z"/>
				<polygon class="st6" points="633.03,905.21 688.13,905.21 688.13,900.96 627.78,900.96 627.78,934.76 633.03,934.76 				"/>
				<path class="st6" d="M688.13,855.19v-4.42c-26.49,0-60.35,13.48-60.35,43.25h5.51C636.14,869.04,663.97,856.74,688.13,855.19z"
					/>
				<path class="st6" d="M700.08,945.19h54.84c0.16-1.38,0.26-2.79,0.26-4.25h-60.35v43.24c1.72,0,3.48-0.06,5.25-0.18V945.19z"/>
				<path class="st6" d="M633.03,945.19h55.11v-4.25h-60.36c0,13.46,6.94,23.59,16.99,30.64
					C637.63,964.9,633.03,956.15,633.03,945.19z"/>
				<polygon class="st6" points="700.07,905.21 755.18,905.21 755.18,900.96 694.82,900.96 694.82,934.76 700.07,934.76 				"/>
			</g>
		</g>
		<g>
			<g>
				<rect x="116.93" y="900.96" class="st5" width="60.35" height="33.8"/>
				<path class="st5" d="M183.98,850.76v43.25h60.35C244.34,864.24,210.47,850.76,183.98,850.76z"/>
				<rect x="183.98" y="900.96" class="st5" width="60.36" height="33.8"/>
				<path class="st5" d="M116.93,894.01h60.35v-43.25C150.79,850.76,116.93,864.24,116.93,894.01z"/>
				<g>
					<path class="st5" d="M244.34,940.94h-60.35v43.24C210.47,984.18,244.34,970.7,244.34,940.94z"/>
					<path class="st5" d="M177.29,984.18v-43.24h-60.35C116.93,970.7,150.8,984.18,177.29,984.18z"/>
				</g>
			</g>
			<g>
				<path class="st6" d="M189.23,855.01c14.51,0,31.21,4.05,43.37,12.6c-12.22-11.46-31.89-16.85-48.62-16.85v43.25h5.25V855.01z"/>
				<polygon class="st6" points="122.18,905.21 177.28,905.21 177.28,900.96 116.93,900.96 116.93,934.76 122.18,934.76 				"/>
				<path class="st6" d="M177.28,855.19v-4.42c-26.49,0-60.35,13.48-60.35,43.25h5.51C125.29,869.04,153.12,856.74,177.28,855.19z"
					/>
				<path class="st6" d="M189.23,945.19h54.84c0.16-1.38,0.26-2.79,0.26-4.25h-60.35v43.24c1.72,0,3.48-0.06,5.25-0.18V945.19z"/>
				<path class="st6" d="M122.18,945.19h55.1v-4.25h-60.35c0,13.46,6.94,23.59,16.99,30.64
					C126.79,964.9,122.18,956.15,122.18,945.19z"/>
				<polygon class="st6" points="189.23,905.21 244.34,905.21 244.34,900.96 183.98,900.96 183.98,934.76 189.23,934.76 				"/>
			</g>
		</g>
	</g>
	<polygon class="st10" points="228.68,719.65 436.06,578.41 643.44,719.65 	"/>
	<polygon class="st14" points="341.55,719.65 436.06,578.41 530.56,719.65 	"/>
	<rect x="78.06" y="719.65" class="st11" width="716" height="22.91"/>
	<g>
		<path class="st13" d="M698.94,1136.59c0,2.29-1.85,4.14-4.15,4.14h-43.84c-2.29,0-4.14-1.85-4.14-4.14v-13.1
			c0-2.29,1.85-4.15,4.14-4.15h43.84c2.3,0,4.15,1.86,4.15,4.15V1136.59z"/>
		<path class="st15" d="M759.61,1136.59c0,2.29-1.85,4.14-4.14,4.14h-43.85c-2.29,0-4.14-1.85-4.14-4.14v-13.1
			c0-2.29,1.85-4.15,4.14-4.15h43.85c2.29,0,4.14,1.86,4.14,4.15V1136.59z"/>
		<path class="st16" d="M725.01,1162.96c0,2.29-1.85,4.15-4.14,4.15h-43.85c-2.29,0-4.14-1.86-4.14-4.15v-13.11
			c0-2.29,1.85-4.14,4.14-4.14h43.85c2.29,0,4.14,1.85,4.14,4.14V1162.96z"/>
		<path class="st17" d="M785.67,1162.96c0,2.29-1.85,4.15-4.14,4.15h-43.85c-2.29,0-4.14-1.86-4.14-4.15v-13.11
			c0-2.29,1.86-4.14,4.14-4.14h43.85c2.29,0,4.14,1.85,4.14,4.14V1162.96z"/>
	</g>
	<g>
		<path class="st13" d="M129.81,1119.3c0,2.3-1.85,4.15-4.15,4.15H81.82c-2.29,0-4.14-1.85-4.14-4.15v-13.1
			c0-2.29,1.85-4.14,4.14-4.14h43.84c2.29,0,4.15,1.85,4.15,4.14V1119.3z"/>
		<path class="st15" d="M190.47,1119.3c0,2.3-1.85,4.15-4.14,4.15h-43.85c-2.29,0-4.14-1.85-4.14-4.15v-13.1
			c0-2.29,1.85-4.14,4.14-4.14h43.85c2.29,0,4.14,1.85,4.14,4.14V1119.3z"/>
		<path class="st18" d="M155.88,1145.67c0,2.29-1.85,4.14-4.14,4.14h-43.85c-2.29,0-4.14-1.86-4.14-4.14v-13.11
			c0-2.29,1.85-4.14,4.14-4.14h43.85c2.29,0,4.14,1.86,4.14,4.14V1145.67z"/>
		<path class="st17" d="M216.54,1145.67c0,2.29-1.85,4.14-4.14,4.14h-43.85c-2.28,0-4.14-1.86-4.14-4.14v-13.11
			c0-2.29,1.86-4.14,4.14-4.14h43.85c2.29,0,4.14,1.86,4.14,4.14V1145.67z"/>
	</g>
	<g>
		
			<ellipse transform="matrix(0.1602 -0.9871 0.9871 0.1602 -124.4446 847.8755)" class="st7" cx="436.06" cy="497.07" rx="43.25" ry="43.25"/>
		<text transform="matrix(1 0 0 1 400.2868 519.5452)" class="st19 st20 st21">13</text>
	</g>
</g>
</svg>
