<?xml version="1.0" encoding="utf-8"?>
<!-- Generator: Adobe Illustrator 26.5.0, SVG Export Plug-In . SVG Version: 6.00 Build 0)  -->
<svg version="1.1" id="Шар_1" xmlns="http://www.w3.org/2000/svg" xmlns:xlink="http://www.w3.org/1999/xlink" x="0px" y="0px"
	 viewBox="0 0 716.92 862.79" style="enable-background:new 0 0 716.92 862.79;" xml:space="preserve">
<style type="text/css">
	.st0{fill:#D8D8D8;}
</style>
<path class="st0" d="M291.26,488.99c-23.74-57.52-34.06-117.22-32.54-175.66c-7.31,0.95-14.69,0.35-21.83-2
	c-32.18-10.6-47.19-52.83-33.52-94.31c13.67-41.48,50.84-66.52,83.02-55.92c1.27,0.42,2.51,0.91,3.73,1.42
	C315.05,100.84,354.13,44.9,405.2,0c-46.26,2.86-92.84,13.26-138.08,31.93C46.73,122.89-58.2,375.29,32.77,595.68
	c90.96,220.39,343.36,325.31,563.75,234.35c45.24-18.67,85.6-44.15,120.41-74.75C537.81,766.35,363.55,664.14,291.26,488.99z
	 M100.11,268.52c-21.1-10.98-26.74-41.94-12.58-69.15c14.16-27.2,42.74-40.36,63.85-29.37c21.11,10.98,26.74,41.94,12.58,69.15
	C149.8,266.35,121.22,279.5,100.11,268.52z M154.89,432.18c-27.81,0.43-50.82-28.28-51.38-64.13
	c-0.56-35.85,21.54-65.27,49.35-65.71c27.82-0.43,50.82,28.28,51.38,64.13C204.79,402.33,182.71,431.75,154.89,432.18z
	 M243.47,291.38c-20.77-6.84-30-37.89-20.15-67.79c9.85-29.9,35.72-49.39,56.5-42.54c20.77,6.84,30,37.89,20.15,67.79
	C290.11,278.75,264.24,298.23,243.47,291.38z M148.31,410.22c-11.56-3.81-23.44-19.63-23.8-42.5c-0.19-12.52,3.39-24.62,9.83-33.2
	c3.09-4.12,9.65-11.04,18.85-11.19c2.1-0.03,4.21,0.29,6.26,0.97c11.55,3.81,23.43,19.63,23.79,42.49
	c0.2,12.52-3.38,24.63-9.82,33.2c-3.09,4.11-9.65,11.04-18.85,11.18C152.46,411.22,150.35,410.89,148.31,410.22z M111.73,250.7
	c-0.66-0.22-1.31-0.49-1.92-0.81c-9.27-4.82-13.04-22.77-3.65-40.82c8.87-17.04,24.35-24.3,33.6-21.25
	c0.66,0.22,1.31,0.49,1.92,0.81c9.26,4.82,13.04,22.77,3.65,40.82C136.46,246.49,120.98,253.75,111.73,250.7z"/>
</svg>
