<?xml version="1.0" encoding="utf-8"?>
<!-- Generator: Adobe Illustrator 26.5.0, SVG Export Plug-In . SVG Version: 6.00 Build 0)  -->
<svg version="1.1" id="Шар_1" xmlns="http://www.w3.org/2000/svg" xmlns:xlink="http://www.w3.org/1999/xlink" x="0px" y="0px"
	 viewBox="0 0 123.11 102.08" style="enable-background:new 0 0 123.11 102.08;" xml:space="preserve">
<style type="text/css">
	.st0{fill:#FF9C00;}
	.st1{fill:#F48500;}
	.st2{fill:#A04800;}
	.st3{fill:#CB5B00;}
</style>
<g>
	<path class="st0" d="M123.11,61.56c0,34-27.56,40.52-61.56,40.52c-34,0-61.55-6.53-61.55-40.52C0,27.56,27.56,0,61.55,0
		C95.55,0,123.11,27.56,123.11,61.56z"/>
	<g>
		<path class="st1" d="M67.78,8.32l-0.15,1.14c17.59,2.31,37.23,28.6,38.93,52.08c1.27,17.54-2.25,29.48-11.19,36.85
			c0.93-0.27,1.85-0.56,2.75-0.86c7.77-7.66,10.79-19.41,9.58-36.08C105.95,37.06,86.17,10.74,67.78,8.32z"/>
		<path class="st1" d="M16.55,61.54c1.69-23.48,21.34-49.78,38.93-52.08l-0.15-1.14C36.94,10.74,17.17,37.06,15.4,61.45
			c-1.2,16.66,1.82,28.41,9.58,36.08c0.9,0.3,1.82,0.59,2.75,0.86C18.8,91.02,15.28,79.08,16.55,61.54z"/>
		<path class="st1" d="M46.14,8.32c-0.3,0.04-16.88,2.42-31.21,13.07c-1.17,1.35-2.28,2.75-3.33,4.21
			C26.38,12.32,45.97,9.5,46.29,9.46L46.14,8.32z"/>
		<path class="st1" d="M62.13,102.08V11.06h-1.15v91.01c0.19,0,0.38,0.01,0.57,0.01C61.75,102.08,61.94,102.08,62.13,102.08z"/>
		<path class="st1" d="M108.18,21.39C93.84,10.74,77.27,8.36,76.97,8.32l-0.15,1.14c0.32,0.04,19.91,2.86,34.69,16.14
			C110.46,24.15,109.35,22.75,108.18,21.39z"/>
	</g>
	<path class="st2" d="M80.94,7.31c0,2.81-8.68,5.1-19.38,5.1c-10.7,0-19.38-2.29-19.38-5.1s8.68-5.09,19.38-5.09
		C72.26,2.21,80.94,4.49,80.94,7.31z"/>
	<path class="st3" d="M43.14,8.88c2.53-2.04,9.81-3.52,18.42-3.52c8.6,0,15.89,1.48,18.42,3.52c0.62-0.49,0.96-1.03,0.96-1.58
		c0-2.81-8.68-5.43-19.38-5.43c-10.7,0-19.38,2.62-19.38,5.43C42.18,7.86,42.52,8.39,43.14,8.88z"/>
	<g>
		<path class="st2" d="M59.65,65.65c0,0.83-0.68,1.51-1.51,1.51l0,0c-0.83,0-1.51-0.67-1.51-1.51v-3.66c0-0.83,0.67-1.51,1.51-1.51
			l0,0c0.83,0,1.51,0.68,1.51,1.51V65.65z M66.47,61.99c0-0.83-0.67-1.51-1.51-1.51l0,0c-0.83,0-1.51,0.68-1.51,1.51v3.66
			c0,0.83,0.68,1.51,1.51,1.51l0,0c0.83,0,1.51-0.67,1.51-1.51V61.99z"/>
		<g>
			<path class="st3" d="M58.15,65.47c-0.83,0-1.51-0.67-1.51-1.51v1.69c0,0.83,0.67,1.51,1.51,1.51c0.83,0,1.51-0.67,1.51-1.51
				v-1.69C59.65,64.8,58.98,65.47,58.15,65.47z"/>
			<path class="st3" d="M64.97,65.47c-0.83,0-1.51-0.67-1.51-1.51v1.69c0,0.83,0.68,1.51,1.51,1.51c0.83,0,1.51-0.67,1.51-1.51
				v-1.69C66.47,64.8,65.8,65.47,64.97,65.47z"/>
		</g>
	</g>
	<g>
		<g>
			<path class="st2" d="M22.31,44.53c-0.19,0.9-0.3,1.82-0.3,2.78c0,7.42,6.01,13.42,13.43,13.42c7.42,0,13.43-6.01,13.43-13.42
				c0-0.96-0.11-1.88-0.3-2.78H22.31z"/>
			<path class="st3" d="M35.44,55.17c-6.46,0-11.85-4.57-13.13-10.64c-0.19,0.89-0.3,1.82-0.3,2.78c0,7.42,6.01,13.42,13.43,13.42
				c7.42,0,13.43-6.01,13.43-13.42c0-0.96-0.1-1.89-0.29-2.78C47.3,50.6,41.9,55.17,35.44,55.17z"/>
		</g>
		<g>
			<path class="st2" d="M74.54,44.53c-0.19,0.9-0.3,1.82-0.3,2.78c0,7.42,6.01,13.42,13.43,13.42c7.41,0,13.42-6.01,13.42-13.42
				c0-0.96-0.11-1.88-0.3-2.78H74.54z"/>
			<path class="st3" d="M87.68,55.17c-6.47,0-11.86-4.57-13.14-10.64c-0.18,0.89-0.29,1.82-0.29,2.78c0,7.42,6.01,13.42,13.43,13.42
				c7.41,0,13.42-6.01,13.42-13.42c0-0.96-0.1-1.89-0.29-2.78C99.53,50.6,94.13,55.17,87.68,55.17z"/>
		</g>
	</g>
	<g>
		<g>
			<path class="st2" d="M34.75,77.2c0-9.7,12-0.13,26.8-0.13c14.8,0,26.81-9.56,26.81,0.13c0,9.7-12,17.57-26.81,17.56
				C46.75,94.76,34.75,86.89,34.75,77.2z"/>
		</g>
		<g>
			<path class="st0" d="M41.81,72.06c0,0,2.93,10.9,4.42,9.94c1.5-0.96,3.2-8.53,3.2-8.53L41.81,72.06z"/>
			<path class="st0" d="M81.31,72.06c0,0-2.93,10.9-4.43,9.94c-1.5-0.96-3.2-8.53-3.2-8.53L81.31,72.06z"/>
		</g>
	</g>
</g>
</svg>
